<svg width="81" height="80" viewBox="0 0 81 80" fill="none" xmlns="http://www.w3.org/2000/svg">
<g clip-path="url(#clip0)">
<path d="M77.3356 24.9915C81.13 15.9548 81.38 8.42493 76.8311 3.90879C71.7734 -1.10815 59.6357 0.398703 46.757 6.41283H45.2348C36.1416 6.41283 27.2894 9.6836 20.7184 15.4495C15.1651 20.4709 11.1207 26.9947 9.34849 34.2675C10.6118 32.774 17.6917 24.4863 25.7761 19.9701C26.035 19.9701 28.0527 18.7159 28.0527 18.7159C27.7983 18.7159 24.0128 22.483 23.2584 23.2364C5.55854 41.301 -4.798 68.6549 3.29081 76.6811C8.59407 81.9507 18.2006 80.6964 29.3205 74.6779C34.1194 76.9382 39.4315 77.9353 45.2348 77.9353C52.8191 77.9353 59.8991 75.9277 65.9612 71.9124C72.2823 67.897 76.8356 61.6347 79.6167 54.353H59.9036C57.3769 59.1174 51.5603 62.3837 45.4981 62.3837C36.9004 62.3837 29.8205 55.3547 29.5705 47.3284V46.5794H81.1344V45.826C81.1344 44.5718 81.3889 43.0649 81.3889 42.0677C81.3844 36.0314 79.8667 30.2611 77.3356 24.9915ZM8.84405 75.1787C4.79965 71.1634 6.0719 63.3809 10.8663 54.1004C13.1429 60.376 16.9329 65.8982 21.7362 69.9091C23.2584 71.1589 25.0172 72.4132 26.7939 73.4192C18.6962 77.6872 12.1296 78.4406 8.84405 75.1787ZM60.6535 37.0375H29.8205V36.7849C30.3249 29.0024 37.6504 22.226 46.2526 22.226C54.3414 22.226 60.9124 28.5016 61.4169 36.7849V37.0375H60.6535ZM76.0722 22.9838C74.4942 20.3694 72.534 18.0021 70.2556 15.9592C66.7325 12.7033 62.6139 10.1473 58.1224 8.42936C66.2157 4.66665 73.0367 4.17028 76.5767 7.68037C79.3578 10.9423 79.1078 16.46 76.0722 22.9838C76.0722 23.2364 76.0722 23.2364 76.0722 22.9838C76.0722 23.2364 76.0722 23.2364 76.0722 22.9838Z" fill="white"/>
</g>
<defs>
<clipPath id="clip0">
<rect width="80" height="80" fill="white" transform="translate(0.5)"/>
</clipPath>
</defs>
</svg>
