<svg width="80" height="80" viewBox="0 0 80 80" fill="none" xmlns="http://www.w3.org/2000/svg">
<g clip-path="url(#clip0)">
<path d="M35.0138 0.133823C29.3566 0.872164 22.684 3.39382 17.7642 6.69416C13.6946 9.37317 8.10595 14.8442 8.46053 15.7762C9.23819 17.7975 21.6767 38.6042 21.8782 38.2169C22.0313 37.9466 22.261 37.0912 22.3738 36.2399C23.3811 30.6519 28.1156 25.3302 34.0467 23.1152C36.3354 22.2235 36.7987 22.2235 56.1878 22.0258L76 21.8362L74.4084 19.2298C68.8278 10.1115 60.2172 3.82149 49.4387 1.02548C46.4933 0.246793 38.1163 -0.257538 35.0138 0.137857V0.133823Z" fill="white"/>
<path d="M4.41845 21.144C2.5871 24.3572 0.444468 30.8561 -0.0568272 34.6485C-2.43394 51.8328 6.28213 68.4299 21.6889 76.1312C25.3031 77.949 30.4777 79.6904 32.7335 79.8834L34.1727 80L40.9402 68.5867C44.6393 62.3171 47.6309 57.1292 47.5541 57.0528C47.4732 56.9764 46.6202 57.2096 45.6096 57.5555C39.2666 59.687 31.9169 57.9014 27.1344 53.0674C25.4203 51.3623 23.0836 47.6101 15.6531 34.8013C10.5229 25.9418 6.20532 18.6667 6.04766 18.6667C5.93446 18.6667 5.19465 19.7887 4.41845 21.144Z" fill="white"/>
<path d="M52.834 28.052C57.7614 33.025 59.5073 40.0761 57.334 46.4304C56.9872 47.4714 52.447 55.5235 47.2495 64.3884C42.0479 73.2092 37.7778 80.5285 37.7778 80.6446C37.7778 81.1051 43.1326 80.8728 46.5479 80.2962C63.9669 77.3333 77.0837 64.2722 79.8739 47.1591C80.9223 40.9209 80.5352 35.4474 78.636 29.1291L77.628 25.7778H50.5841L52.83 28.052H52.834Z" fill="white"/>
<path d="M34.1963 26.6248C30.2368 28.2881 27.5201 31.0851 26.05 35.0472C25.3718 36.8243 25.2581 37.8442 25.3718 40.6334C25.4894 43.5755 25.6384 44.4111 26.7321 46.5608C28.1669 49.503 30.5034 51.7743 33.5965 53.2415C35.4076 54.1084 36.1603 54.2222 39.6336 54.2222C43.1422 54.2222 43.8557 54.1085 45.7453 53.2023C48.5365 51.9234 51.4766 48.9773 52.7625 46.1803C53.6641 44.2973 53.7778 43.5795 53.7778 40.0685C53.7778 36.5928 53.6641 35.8396 52.7978 34.0273C51.3277 30.936 49.0657 28.5902 46.1216 27.1622C43.8949 26.0638 43.2128 25.9148 40.006 25.7971C36.9169 25.7225 36.125 25.8363 34.2041 26.6326L34.1963 26.6248Z" fill="white"/>
</g>
<defs>
<clipPath id="clip0">
<rect width="80" height="80" fill="white"/>
</clipPath>
</defs>
</svg>
