<svg width="79" height="80" viewBox="0 0 79 80" fill="none" xmlns="http://www.w3.org/2000/svg">
<g clip-path="url(#clip0)">
<path d="M63.4531 7C61.5395 9.27775 60.6425 14.3799 62.586 19.5732C64.5294 24.7665 67.5194 23.6428 69.3732 28.9272C71.8249 35.9123 70.6887 45.2966 70.6887 45.2966C70.6887 45.2966 73.6488 53.9825 75.7119 44.75C80.2865 27.4087 63.4531 11.2822 63.4531 7Z" fill="url(#paint0_radial)"/>
<path d="M39.4849 79C59.3959 79 75.5 62.6626 75.5 42.4848C75.5 22.3069 59.3657 6 39.4849 6C19.6041 6 3.50004 22.3374 3.50004 42.4848C3.46983 62.6626 19.6041 79 39.4849 79Z" fill="url(#paint1_radial)"/>
<path d="M66.5242 64.6767C65.7387 65.2191 64.923 65.7011 64.077 66.1531C65.1949 64.4959 66.2523 62.8086 67.1888 61.0611C67.9441 60.2174 68.6692 59.4039 69.2432 58.5C69.5151 58.048 69.8474 57.5358 70.1798 56.9031C72.2039 53.2573 74.4396 47.3819 74.5 41.3559V40.9039C74.5 39.3974 74.3489 37.8607 74.0468 36.3844C74.077 36.5049 74.077 36.6254 74.1072 36.7459C74.077 36.6555 74.077 36.5651 74.0468 36.4748C74.077 36.6254 74.1072 36.8062 74.1375 36.9568C74.5604 40.452 74.2583 43.8567 72.7779 46.3876C72.7477 46.4177 72.7175 46.4479 72.7175 46.5081C73.4728 42.6816 73.7447 38.4634 72.8988 34.2451C72.8988 34.2451 72.5665 32.1963 70.0287 25.9593C68.5786 22.3738 65.9804 19.421 63.7145 17.2818C61.7205 14.8111 59.8776 13.1539 58.8807 12.0993C56.7961 9.89984 55.9199 8.24267 55.5574 7.18811C55.2553 7.03746 51.2372 3.15065 50.935 3C49.1828 5.71173 43.7145 14.1482 46.3127 22.0122C47.4909 25.5977 50.4819 29.3037 53.6239 31.3827C53.7749 31.5334 55.497 33.4015 56.3127 37.6197C57.1586 41.9886 56.7054 45.3632 54.9834 50.3949C52.929 54.794 47.6722 59.1629 42.7477 59.6148C32.2341 60.579 28.3671 54.342 28.3671 54.342C32.1133 55.8485 36.2825 55.5171 38.8202 53.9804C41.358 52.4137 42.8988 51.2386 44.1677 51.6905C45.4063 52.1425 46.3731 50.8168 45.497 49.4308C44.1073 47.2915 41.5695 46.2068 39.0619 46.6287C36.5242 47.0505 34.1677 49.0692 30.8444 47.1107C30.6329 46.9902 30.4214 46.8396 30.21 46.6889C29.9985 46.5383 30.935 46.8998 30.6934 46.7492C30.0589 46.3876 28.8807 45.6344 28.6088 45.3632C28.5483 45.3029 29.1224 45.544 29.0619 45.4837C25.9501 42.9226 26.3429 41.1751 26.4335 40.0904C26.5242 39.2166 27.068 38.1018 28.0347 37.6498C28.4879 37.8909 28.79 38.1018 28.79 38.1018C28.79 38.1018 28.5785 37.7101 28.4879 37.4992C28.5181 37.4691 28.5483 37.4992 28.6088 37.4691C29.0015 37.6498 29.8172 38.1319 30.2704 38.4031C30.8444 38.7948 31.0257 39.1564 31.0257 39.1564C31.0257 39.1564 31.1767 39.066 31.0559 38.7345C31.0257 38.5839 30.8444 38.1319 30.2704 37.68H30.3006C30.6329 37.8607 30.9653 38.1018 31.2674 38.3428C31.4184 37.7704 31.7205 37.1678 31.6601 36.0831C31.6299 35.3298 31.6299 35.1189 31.5091 34.8176C31.3882 34.5765 31.5695 34.456 31.781 34.7272C31.7508 34.5163 31.6903 34.3054 31.5997 34.1246V34.0945C31.8716 33.1906 37.1284 30.8103 37.5211 30.5391C38.1556 30.0871 38.6692 29.5147 39.0619 28.8518C39.364 28.3998 39.5755 27.737 39.6359 26.7427C39.6662 26.0195 39.3338 25.5375 33.9864 24.9951C32.5363 24.8445 31.6601 23.7899 31.1767 22.8257C31.0861 22.6148 30.9955 22.434 30.9048 22.2231C30.8142 22.0122 30.7538 21.7712 30.6934 21.5301C31.5695 19.0293 33.0196 16.9202 35.1949 15.3233C35.3157 15.2028 34.7115 15.3534 34.8323 15.2329C34.9834 15.1124 35.8595 14.7508 36.0408 14.6604C36.2523 14.57 35.1646 14.0879 34.1979 14.2085C33.2311 14.329 33.0196 14.4495 32.4758 14.6604C32.6873 14.4495 33.3822 14.1482 33.2311 14.1783C32.1737 14.329 30.8746 14.9617 29.7568 15.6547C29.7568 15.5342 29.787 15.4137 29.8172 15.2932C29.3036 15.5041 28.0045 16.408 27.642 17.1612C27.6722 17.0106 27.6722 16.8599 27.6722 16.7093C27.2795 17.0407 26.9169 17.4023 26.6148 17.8241L26.4335 17.8844C23.4124 16.6792 20.7236 16.5888 18.4879 17.1311C18.0045 16.649 17.7628 17.0106 16.6148 14.5399C16.5242 14.3893 16.6752 14.6906 16.6148 14.5399C16.4335 14.0578 16.7356 15.1726 16.6148 14.5399C14.7417 16.0464 12.2643 17.7337 11.0559 18.9088C11.0559 18.9691 12.4456 18.5171 11.0559 18.9088C10.5725 19.0594 10.6027 19.3306 10.5423 21.952C10.5121 22.1629 10.5423 22.3738 10.5121 22.5546C9.54532 23.7598 8.91088 24.7842 8.66918 25.3265C7.43051 27.4357 6.071 30.75 4.7719 35.9625C5.34592 34.5464 6.04079 33.1906 6.8565 31.8949C5.76888 34.6669 4.71148 39.0358 4.5 45.7248C4.7719 44.3388 5.10423 42.9829 5.52719 41.627C5.25529 47.2011 6.22205 52.7451 8.33686 57.8974C9.09214 59.7353 10.3308 62.5375 12.4758 65.6107C19.1828 72.6311 28.6088 77 39.0619 77C49.9683 77 59.787 72.2394 66.5242 64.6767Z" fill="url(#paint2_linear)"/>
<path d="M58.385 69.9772C71.8132 68.4797 77.7745 55.2662 70.1232 55.002C63.24 54.7964 52.0242 70.6819 58.385 69.9772Z" fill="url(#paint3_radial)"/>
<path d="M71.0469 51.6902C79.4424 46.4085 77.2389 35 77.2389 35C77.2389 35 74.0034 39.0745 71.7999 45.5634C69.6522 51.9921 65.9984 54.8895 71.0469 51.6902Z" fill="url(#paint4_radial)"/>
<path d="M41.7692 77.0294C54.3423 81.1669 65.1192 70.9466 58.4735 67.5501C52.4264 64.4933 35.812 75.0841 41.7692 77.0294Z" fill="url(#paint5_radial)"/>
<path d="M72.0908 57.0342C72.3949 56.6095 72.8207 55.2139 73.1857 54.5768C75.4362 50.9363 75.4666 48.0541 75.4666 47.9935C76.8352 41.2281 76.7135 38.437 75.862 33.3402C75.1929 29.2143 72.2429 23.2984 69.6882 20.477C67.0728 17.5342 68.8975 18.505 66.3733 16.351C64.1532 13.8936 61.9635 11.4363 60.8078 10.4654C52.2923 3.36636 52.4748 1.84946 52.6573 1.60676L52.5356 1.72811C52.4444 1.33372 52.3532 1 52.3532 1C52.3532 1 47.6696 5.61137 46.6965 13.3475C46.0578 18.3836 47.9434 23.6624 50.7109 27.03C52.1403 28.7896 53.7521 30.3671 55.5161 31.7627C57.5841 34.7358 58.7398 38.4067 58.7398 42.3506C58.7398 52.2408 50.7109 60.2197 40.7964 60.2197C39.4583 60.2197 38.0897 60.068 36.782 59.7646C32.0985 58.8848 29.4222 56.5184 28.0536 54.9105C27.2933 54.0004 26.9588 53.333 26.9588 53.333C31.1557 54.8195 35.7784 54.5161 38.6068 52.9689C41.4351 51.3913 43.1686 50.2385 44.5676 50.6936C45.9361 51.1486 47.031 49.8138 46.0578 48.4485C45.0846 47.0833 42.5908 45.1114 38.8805 45.6575C36.0521 46.0822 33.4366 48.0845 29.7263 46.1429C29.483 46.0215 29.2397 45.8698 29.0268 45.7485C28.7835 45.5968 29.8176 45.9608 29.5743 45.8091C28.8444 45.4451 27.567 44.6866 27.2325 44.4136C27.1717 44.3529 27.7799 44.5956 27.7495 44.5349C24.2825 41.9866 24.7083 40.2573 24.7995 39.1651C24.8908 38.2853 25.5294 37.1932 26.5939 36.7381C27.1109 36.9808 27.415 37.1932 27.415 37.1932C27.415 37.1932 27.2021 36.7988 27.0804 36.5864C27.1109 36.5561 27.1717 36.5864 27.2021 36.5561C27.6279 36.7381 28.5707 37.1932 29.0573 37.4965C29.6959 37.8909 29.9088 38.255 29.9088 38.255C29.9088 38.255 30.0913 38.164 29.9392 37.8303C29.8784 37.6786 29.6959 37.2235 29.0573 36.7684H29.0877C29.4526 36.9505 29.8176 37.1932 30.1521 37.4359C30.3346 36.8594 30.6387 36.2527 30.5779 35.1605C30.5475 34.4021 30.5475 34.1897 30.3954 33.9167C30.2738 33.674 30.4562 33.5526 30.6995 33.8257C30.6691 33.6133 30.5779 33.4313 30.4866 33.2189V33.1886C30.7908 32.2784 36.6604 29.9121 37.0861 29.639C37.7856 29.2143 38.3635 28.6379 38.8196 27.9704C39.1542 27.5154 39.3975 26.8479 39.4583 25.8468C39.4887 25.3917 39.3367 25.058 37.7856 24.6939C36.8428 24.4816 35.4134 24.2995 33.1629 24.0872C31.5511 23.9355 30.5779 22.904 30.0305 21.9332C29.9392 21.7208 29.8176 21.5388 29.7263 21.3568C29.6351 21.1444 29.5439 20.9017 29.483 20.6893C30.4562 18.1409 32.2201 15.9869 34.5011 14.5004C34.6227 14.379 33.9841 14.5307 34.1057 14.4094C34.2578 14.288 35.2614 13.924 35.4439 13.8329C35.6872 13.7419 34.4707 13.2869 33.3758 13.3779C32.281 13.4992 32.0681 13.5902 31.4598 13.8329C31.7031 13.6206 32.4634 13.3475 32.281 13.3475C31.1861 13.4689 29.7263 14.0757 28.4794 14.7734C28.4794 14.6521 28.5098 14.5307 28.5402 14.4094C27.9624 14.6217 26.533 15.5319 26.1073 16.2903C26.1377 16.1386 26.1377 15.9869 26.1377 15.8656C25.7119 16.1993 25.2861 16.5634 24.9516 16.9881L24.9212 17.0184C21.5454 15.8049 18.565 15.7139 16.0712 16.26C15.5237 15.7746 14.6418 15.0161 13.3949 12.5588C13.3036 12.4071 13.2732 12.8621 13.2124 12.7104C12.7258 11.5879 12.4217 9.73733 12.4825 8.46313C12.4825 8.46313 11.4789 8.9182 10.6577 10.8295C10.5057 11.1632 10.4144 11.3756 10.2928 11.5576C10.232 11.6183 10.384 10.9205 10.384 10.9812C10.232 11.2239 9.86702 11.5576 9.71496 12.0127C9.59331 12.3464 9.44125 12.5284 9.35001 12.9228L9.3196 12.9531C9.3196 12.8318 9.35001 12.4677 9.3196 12.5284C8.92424 13.3172 8.5897 14.1363 8.31599 14.9555C7.8598 16.4117 7.34279 18.414 7.25155 21.023C7.22114 21.2051 7.25156 21.4478 7.22114 21.6298C6.15671 22.8433 5.42681 23.8748 5.1531 24.3906C3.78454 26.5142 2.26392 29.7907 0.804124 35.0088C1.44278 33.583 2.23351 32.2177 3.14588 30.9435C1.92938 33.7043 0.743299 38.073 0.5 44.7473C0.804124 43.3518 1.16907 41.9866 1.62526 40.6517C1.41237 45.1114 1.92938 50.6632 4.75774 56.9128C6.43042 60.5837 10.2928 68.0469 19.7511 73.8717C19.7511 73.8717 22.9748 76.2684 28.4794 78.0584C28.8748 78.2101 29.3006 78.3617 29.7263 78.4831C29.6047 78.4224 29.4526 78.3617 29.331 78.3314C33.0109 79.4236 36.8124 80 40.6748 80C54.9686 80 59.196 74.2661 59.196 74.2661L59.1655 74.2965C59.3784 74.1144 59.5609 73.9021 59.7434 73.72C57.4929 75.8437 52.3227 75.9954 50.4068 75.8437C53.6913 74.8729 55.8506 74.0538 60.0475 72.4762C60.5341 72.2942 61.0511 72.0818 61.5681 71.8391L61.7202 71.7481C61.8114 71.6874 61.9331 71.6571 62.0243 71.5964C64.0619 70.6256 66.0083 69.4424 67.7723 68.0165C71.9996 64.649 72.9119 61.3725 73.3986 59.2185C73.3377 59.4309 73.1248 59.9163 72.9728 60.2197C71.8779 62.5253 69.4753 63.9816 66.8599 65.1951C68.1068 63.5568 69.2625 61.8579 70.3269 60.0983C71.1784 59.2488 71.4217 57.914 72.0908 57.0342Z" fill="url(#paint6_radial)"/>
<path d="M66.7613 65.2859C68.4853 63.4042 69.9976 61.2189 71.1772 58.7604C74.1716 52.4473 78.7992 41.9153 75.1697 30.9585C72.2963 22.278 68.3341 17.5431 63.3132 12.8994C55.1468 5.3722 52.8784 2.0032 52.8784 0C52.8784 0 43.4416 10.5319 47.5248 21.5495C51.608 32.5671 59.9862 32.1422 65.5212 43.615C72.0543 57.1214 60.2584 71.8722 50.4889 76C51.0938 75.8786 72.1753 71.0831 73.2944 58.9728C73.2339 59.1853 72.75 62.5543 66.7613 65.2859Z" fill="url(#paint7_radial)"/>
<path d="M39.4985 25.3956C39.5289 24.6384 39.1638 24.165 33.2312 23.5655C30.7973 23.3447 29.8541 21.0097 29.5803 20C28.7285 22.335 28.3634 24.7961 28.5459 27.7621C28.6676 29.7184 29.9454 31.801 30.5235 33C30.5235 33 30.6452 32.8107 30.706 32.7476C31.8317 31.517 36.5778 29.6553 37.0341 29.4029C37.5513 29.0874 39.4376 27.6675 39.4985 25.3956Z" fill="url(#paint8_linear)"/>
<path d="M13.7333 12.0322C13.6411 11.8828 13.6103 12.3308 13.5488 12.1815C13.057 11.0764 12.7496 9.28432 12.8418 8C12.8418 8 11.8273 8.44802 10.9973 10.3297C10.8436 10.6582 10.7514 10.8673 10.6284 11.0465C10.5669 11.1063 10.7206 10.4193 10.7206 10.479C10.5669 10.718 10.198 11.0465 10.0443 11.4647C9.92136 11.7932 9.76766 12.0023 9.67543 12.4205C9.64469 12.5399 9.70617 11.9127 9.67543 12.0023C7.70799 15.6761 7.33909 21.2315 7.55428 20.9925C11.7351 16.6617 16.5 15.6462 16.5 15.6462C15.9159 15.2878 14.8092 14.2125 13.7333 12.0322Z" fill="url(#paint9_linear)"/>
<path d="M29.427 58.0951C23.7405 55.6578 17.2634 52.2151 17.5066 44.4157C17.8411 34.1485 27.0855 36.1593 27.0855 36.1593C26.751 36.2507 25.8083 36.9209 25.4738 37.6217C25.1393 38.5052 24.5007 40.516 26.4165 42.6182C29.4574 45.9085 20.1826 50.4176 34.4749 58.9482C34.8398 59.131 31.1299 58.8263 29.427 58.0951Z" fill="url(#paint10_linear)"/>
<path d="M26.8937 53.1383C31.0018 54.4465 35.7586 54.219 38.6312 52.7686C40.5463 51.7732 43.0174 50.209 44.5 50.6072C43.2027 50.1237 42.2143 49.8962 41.0096 49.8678C40.7934 49.8678 40.5772 49.8678 40.361 49.8393C39.9285 49.8393 39.4961 49.8678 39.0637 49.8962C38.3223 49.9531 37.5193 50.3797 36.7779 50.3228C36.7471 50.3228 37.4884 50.0384 37.4266 50.0384C37.025 50.1237 36.5926 50.1237 36.1602 50.1806C35.8822 50.209 35.6351 50.2375 35.3262 50.2659C26.7701 50.92 19.5732 46 19.5732 46C18.9554 47.877 22.3222 51.6594 26.8937 53.1383Z" fill="url(#paint11_linear)"/>
<path d="M67.1181 65C75.6246 56.583 79.9082 46.3907 78.0854 34.913C78.0854 34.913 78.8145 40.7896 76.0499 46.7886C77.3867 40.912 77.5386 33.6274 74.0144 26.0674C69.3359 15.9976 61.6193 10.6719 58.6724 8.4682C54.2065 5.10139 52.3533 1.70397 52.3229 1C50.9861 3.75466 46.9456 13.1817 51.8976 21.2927C56.5154 28.9139 63.8067 31.1483 68.8802 38.1267C78.2981 51.0124 67.1181 65 67.1181 65Z" fill="url(#paint12_linear)"/>
<path d="M65.633 43.5763C62.6298 37.5025 58.8912 34.8565 55.3671 32C55.7655 32.5713 55.8881 32.7517 56.1026 33.1426C59.2283 36.39 63.7943 44.328 60.4847 54.3106C54.2026 73.0732 29.1354 64.2332 26.5 61.7676C27.5726 72.6222 46.0818 77.824 58.1558 70.788C64.9895 64.3534 70.5361 53.5289 65.633 43.5763Z" fill="url(#paint13_linear)"/>
</g>
<defs>
<radialGradient id="paint0_radial" cx="0" cy="0" r="1" gradientUnits="userSpaceOnUse" gradientTransform="translate(76.741 24.321) rotate(2.29583) scale(27.535 41.2216)">
<stop offset="0.1" stop-color="#FFEA00"/>
<stop offset="0.17" stop-color="#FFDE00"/>
<stop offset="0.28" stop-color="#FFBF00"/>
<stop offset="0.43" stop-color="#FF8E00"/>
<stop offset="0.77" stop-color="#FF272D"/>
<stop offset="0.87" stop-color="#E0255A"/>
<stop offset="0.95" stop-color="#CC2477"/>
<stop offset="1" stop-color="#C42482"/>
</radialGradient>
<radialGradient id="paint1_radial" cx="0" cy="0" r="1" gradientUnits="userSpaceOnUse" gradientTransform="translate(51.3315 11.6924) scale(78.9607 79.6563)">
<stop stop-color="#00CCDA"/>
<stop offset="0.22" stop-color="#0083FF"/>
<stop offset="0.26" stop-color="#007AF9"/>
<stop offset="0.33" stop-color="#005FE7"/>
<stop offset="0.44" stop-color="#2639AD"/>
<stop offset="0.52" stop-color="#401E84"/>
<stop offset="0.57" stop-color="#4A1475"/>
</radialGradient>
<linearGradient id="paint2_linear" x1="44.6338" y1="58.6464" x2="29.1796" y2="7.95699" gradientUnits="userSpaceOnUse">
<stop stop-color="#000F43" stop-opacity="0.4"/>
<stop offset="0.48" stop-color="#001962" stop-opacity="0.17"/>
<stop offset="1" stop-color="#002079" stop-opacity="0"/>
</linearGradient>
<radialGradient id="paint3_radial" cx="0" cy="0" r="1" gradientUnits="userSpaceOnUse" gradientTransform="translate(79.4049 53.2746) rotate(5.36937) scale(26.9844 25.8072)">
<stop stop-color="#FFEA00"/>
<stop offset="0.5" stop-color="#FF272D"/>
<stop offset="1" stop-color="#C42482"/>
</radialGradient>
<radialGradient id="paint4_radial" cx="0" cy="0" r="1" gradientUnits="userSpaceOnUse" gradientTransform="translate(78.6727 27.1544) rotate(6.07513) scale(40.9527 44.2413)">
<stop stop-color="#FFE900"/>
<stop offset="0.16" stop-color="#FFAF0E"/>
<stop offset="0.32" stop-color="#FF7A1B"/>
<stop offset="0.47" stop-color="#FF4E26"/>
<stop offset="0.62" stop-color="#FF2C2E"/>
<stop offset="0.76" stop-color="#FF1434"/>
<stop offset="0.89" stop-color="#FF0538"/>
<stop offset="1" stop-color="#FF0039"/>
</radialGradient>
<radialGradient id="paint5_radial" cx="0" cy="0" r="1" gradientUnits="userSpaceOnUse" gradientTransform="translate(80.7399 68.8399) rotate(5.79286) scale(40.3114 41.5534)">
<stop stop-color="#FF272D"/>
<stop offset="0.5" stop-color="#C42482"/>
<stop offset="0.99" stop-color="#620700"/>
</radialGradient>
<radialGradient id="paint6_radial" cx="0" cy="0" r="1" gradientUnits="userSpaceOnUse" gradientTransform="translate(58.8759 31.9162) scale(63.8771 63.7207)">
<stop offset="0.16" stop-color="#FFEA00"/>
<stop offset="0.23" stop-color="#FFDE00"/>
<stop offset="0.37" stop-color="#FFBF00"/>
<stop offset="0.54" stop-color="#FF8E00"/>
<stop offset="0.76" stop-color="#FF272D"/>
<stop offset="0.8" stop-color="#F92433"/>
<stop offset="0.84" stop-color="#E91C45"/>
<stop offset="0.89" stop-color="#CF0E62"/>
<stop offset="0.94" stop-color="#B5007F"/>
</radialGradient>
<radialGradient id="paint7_radial" cx="0" cy="0" r="1" gradientUnits="userSpaceOnUse" gradientTransform="translate(55.0877 2.54888) scale(72.4025 72.6548)">
<stop offset="0.28" stop-color="#FFEA00"/>
<stop offset="0.4" stop-color="#FFDD00"/>
<stop offset="0.63" stop-color="#FFBA00"/>
<stop offset="0.86" stop-color="#FF9100"/>
<stop offset="0.93" stop-color="#FF6711"/>
<stop offset="0.99" stop-color="#FF4A1D"/>
</radialGradient>
<linearGradient id="paint8_linear" x1="12.633" y1="29.259" x2="44.0516" y2="24.6329" gradientUnits="userSpaceOnUse">
<stop stop-color="#C42482" stop-opacity="0.5"/>
<stop offset="0.47" stop-color="#FF272D" stop-opacity="0.5"/>
<stop offset="0.49" stop-color="#FF2C2C" stop-opacity="0.51"/>
<stop offset="0.68" stop-color="#FF7A1A" stop-opacity="0.72"/>
<stop offset="0.83" stop-color="#FFB20D" stop-opacity="0.87"/>
<stop offset="0.94" stop-color="#FFD605" stop-opacity="0.96"/>
<stop offset="1" stop-color="#FFE302"/>
</linearGradient>
<linearGradient id="paint9_linear" x1="12.694" y1="20.6957" x2="9.56145" y2="9.10723" gradientUnits="userSpaceOnUse">
<stop stop-color="#891551" stop-opacity="0.6"/>
<stop offset="1" stop-color="#C42482" stop-opacity="0"/>
</linearGradient>
<linearGradient id="paint10_linear" x1="18.737" y1="37.3497" x2="25.4886" y2="46.764" gradientUnits="userSpaceOnUse">
<stop offset="0.01" stop-color="#891551" stop-opacity="0.5"/>
<stop offset="0.48" stop-color="#FF272D" stop-opacity="0.5"/>
<stop offset="1" stop-color="#FF272D" stop-opacity="0"/>
</linearGradient>
<linearGradient id="paint11_linear" x1="31.405" y1="53.8697" x2="31.9365" y2="48.2076" gradientUnits="userSpaceOnUse">
<stop stop-color="#C42482"/>
<stop offset="0.08" stop-color="#C42482" stop-opacity="0.81"/>
<stop offset="0.21" stop-color="#C42482" stop-opacity="0.57"/>
<stop offset="0.33" stop-color="#C42482" stop-opacity="0.36"/>
<stop offset="0.45" stop-color="#C42482" stop-opacity="0.2"/>
<stop offset="0.56" stop-color="#C42482" stop-opacity="0.09"/>
<stop offset="0.67" stop-color="#C42482" stop-opacity="0.02"/>
<stop offset="0.77" stop-color="#C42482" stop-opacity="0"/>
</linearGradient>
<linearGradient id="paint12_linear" x1="51.348" y1="2.07554" x2="76.5939" y2="58.1098" gradientUnits="userSpaceOnUse">
<stop stop-color="#FFF14F"/>
<stop offset="0.27" stop-color="#FFEE4C"/>
<stop offset="0.45" stop-color="#FFE643"/>
<stop offset="0.61" stop-color="#FFD834"/>
<stop offset="0.76" stop-color="#FFC41E"/>
<stop offset="0.89" stop-color="#FFAB02"/>
<stop offset="0.9" stop-color="#FFA900"/>
<stop offset="0.95" stop-color="#FFA000"/>
<stop offset="1" stop-color="#FF9100"/>
</linearGradient>
<linearGradient id="paint13_linear" x1="55.9457" y1="34.999" x2="44.4236" y2="66.5297" gradientUnits="userSpaceOnUse">
<stop stop-color="#FF8E00"/>
<stop offset="0.04" stop-color="#FF8E00" stop-opacity="0.86"/>
<stop offset="0.08" stop-color="#FF8E00" stop-opacity="0.73"/>
<stop offset="0.13" stop-color="#FF8E00" stop-opacity="0.63"/>
<stop offset="0.18" stop-color="#FF8E00" stop-opacity="0.56"/>
<stop offset="0.23" stop-color="#FF8E00" stop-opacity="0.51"/>
<stop offset="0.28" stop-color="#FF8E00" stop-opacity="0.5"/>
<stop offset="0.39" stop-color="#FF8E00" stop-opacity="0.48"/>
<stop offset="0.52" stop-color="#FF8E00" stop-opacity="0.42"/>
<stop offset="0.68" stop-color="#FF8E00" stop-opacity="0.31"/>
<stop offset="0.84" stop-color="#FF8E00" stop-opacity="0.17"/>
<stop offset="1" stop-color="#FF8E00" stop-opacity="0"/>
</linearGradient>
<clipPath id="clip0">
<rect width="77.283" height="80" fill="white" transform="translate(0.858521)"/>
</clipPath>
</defs>
</svg>
