<svg width="80" height="80" viewBox="0 0 80 80" fill="none" xmlns="http://www.w3.org/2000/svg">
<g clip-path="url(#clip0)">
<path d="M79.2881 36.9372C79.1832 36.2308 79.0461 35.7827 79.0461 35.7827L78.2918 36.7354C78.1609 34.9942 77.8528 33.271 77.3721 31.5924C76.7699 29.489 75.9718 27.4468 74.9881 25.4928C74.388 24.185 73.6582 22.9408 72.8099 21.7788C72.3702 21.0926 71.991 20.5839 71.9184 20.479C70.4582 18.1013 68.8246 16.6561 66.8803 13.9352C65.6484 11.8457 64.8078 9.54881 64.3995 7.15735C63.8549 8.59208 63.4457 10.0747 63.1773 11.5858C61.229 9.61176 59.4945 8.1706 58.4659 7.22598C53.3551 2.45037 53.9763 0 53.9763 0C53.9763 0 44.4405 10.6371 48.563 21.7062C49.9917 25.4743 52.459 28.7596 55.6785 31.1807C59.6679 34.4627 63.9558 37.0422 66.2026 43.699C64.3992 40.2019 61.6498 37.2825 58.2682 35.2741C59.2888 37.7043 59.801 40.2475 59.7647 42.8795C59.7631 45.2498 59.2947 47.5966 58.3863 49.7856C57.4778 51.9746 56.1471 53.963 54.4703 55.637C52.7935 57.311 50.8034 58.6378 48.6138 59.5415C46.4242 60.4453 44.0781 60.9083 41.7097 60.9041C40.3727 60.9119 39.0393 60.7642 37.7364 60.4641C36.1828 60.1694 34.6791 59.6542 33.271 58.9341C31.1537 57.6758 29.3212 55.9903 27.89 53.9849V53.9566C27.9871 53.9996 28.0886 54.032 28.1925 54.0535C28.9469 54.324 29.6931 54.5299 30.4797 54.6712C33.5333 55.3118 36.7124 54.939 39.5355 53.6095C42.3914 52.0109 44.1299 50.8442 45.5215 51.2923C46.9253 51.7323 47.9741 50.4042 47.0261 49.0115C46.1921 47.9306 45.0783 47.0988 43.8054 46.6064C42.5326 46.114 41.1494 45.9796 39.8057 46.218C36.9377 46.6257 34.3198 48.6361 30.6088 46.6903C30.3385 46.5611 30.1368 46.4239 29.8988 46.2826C29.6568 46.113 30.7136 46.4885 30.4393 46.3189C29.6198 45.917 28.8347 45.4485 28.0917 44.9181C28.0554 44.8818 28.6766 45.0917 28.6 45.0513C27.6291 44.3926 26.796 43.5507 26.1474 42.5727C25.8263 41.9726 25.6449 41.3075 25.617 40.6273C25.589 39.9471 25.7152 39.2693 25.9861 38.6448C26.3342 38.0191 26.8706 37.5191 27.5189 37.2158L28.2934 37.6195C28.2934 37.6195 28.0554 37.2158 27.9505 37.0099C27.9909 36.9776 28.0272 37.0099 28.0917 36.9776C28.5031 37.1472 29.4188 37.6195 29.9271 37.9303C30.2677 38.109 30.5608 38.3664 30.7822 38.6812C30.7822 38.6812 30.9557 38.6125 30.8185 38.2452C30.6527 37.7989 30.3377 37.4238 29.9271 37.1835H29.9997C30.3748 37.3894 30.7177 37.5953 31.0525 37.8577C31.359 37.1068 31.5325 36.3721 31.5043 35.5849C31.5283 35.1565 31.4694 34.7274 31.3308 34.3214C31.1896 34.0509 31.3994 33.9459 31.6333 34.2204C31.5954 34.0069 31.526 33.8001 31.4276 33.6068C31.4276 33.6068 31.5648 33.401 31.6333 33.3566C31.8068 33.1951 31.9722 33.0255 32.1819 32.9246C33.3638 32.1778 34.5981 31.5238 35.893 31.0111C36.5984 30.7344 37.2915 30.4273 37.9704 30.0907C38.2406 29.9212 38.4826 29.7516 38.7206 29.5417C39.6081 28.7949 40.1889 27.7736 40.3866 26.6433C40.4269 26.4818 40.4269 26.3445 40.4269 26.2113V25.9328C40.2898 25.3515 39.3015 24.9437 34.1625 24.4311C33.2749 24.2953 32.449 23.8943 31.7933 23.2805C31.1375 22.6667 30.6824 21.8689 30.4878 20.9917V21.0199C30.4117 21.2137 30.3431 21.4103 30.282 21.6093C30.3466 21.3953 30.4151 21.2298 30.4878 21.0199V20.9917C31.4713 18.4264 33.2332 16.234 35.5259 14.7224C35.651 14.6215 35.0177 14.7507 35.1508 14.6538C35.5622 14.4479 36.0019 14.238 36.4779 14.0684C36.7159 13.9958 35.4896 13.5275 34.4005 13.6244C33.7451 13.6708 33.1011 13.8207 32.4925 14.0684C32.7628 13.8706 33.509 13.5921 33.3396 13.5921C31.9566 13.8362 30.6302 14.3329 29.4269 15.0575C29.4269 14.9243 29.4672 14.8153 29.4995 14.7224C28.5433 15.1248 27.7089 15.7706 27.0792 16.5955V16.1434C26.6548 16.4898 26.257 16.8676 25.8893 17.2737H25.857C23.025 16.1765 19.9371 15.9186 16.9626 16.5309L16.9303 16.4946H16.9626C16.3429 15.9996 15.8145 15.3998 15.4015 14.7224L15.3612 14.7507L15.3007 14.6861C15.0869 14.4116 14.9255 14.0725 14.7077 13.693C14.5464 13.4508 14.4092 13.144 14.2398 12.8453C14.2398 12.8453 14.2398 12.813 14.2075 12.813C14.1672 12.813 14.1026 13.1238 14.0744 13.0108C13.5499 11.657 13.3043 10.2111 13.3524 8.75998H13.3201C12.4659 9.32475 11.8288 10.1631 11.513 11.1377C11.3476 11.4849 11.2427 11.6544 11.1419 11.8603V11.7473L11.2387 11.2426C11.2145 11.279 11.2145 11.3113 11.1701 11.3436C10.929 11.6255 10.7256 11.9376 10.565 12.272C10.3883 12.5815 10.2488 12.9107 10.1496 13.253V13.0835C10.1496 12.9462 10.1859 12.7403 10.1496 12.813L10.1133 12.9058C9.01299 15.3345 8.32325 17.9292 8.07218 20.5839C8.00764 21.0603 8.00764 21.5043 8.00764 21.9444V22.017C7.22918 22.8669 6.53481 23.7903 5.93429 24.7742C3.95569 28.1158 2.48475 31.7334 1.56977 35.5082C2.2192 34.0792 2.99772 32.6784 3.92145 31.3866C2.1605 35.8238 1.25841 40.5555 1.2632 45.3299C1.56977 43.9331 1.94491 42.5687 2.38459 41.2042C2.11562 46.8456 3.20434 52.4692 5.55915 57.6019C8.71842 64.7044 13.982 70.6639 20.6373 74.6738C23.3253 76.5151 26.2747 77.9412 29.3865 78.9044C29.798 79.0376 30.2457 79.2031 30.6491 79.3444C30.512 79.2718 30.4111 79.2031 30.278 79.1749C33.9671 80.2754 37.7956 80.8369 41.6451 80.8421C55.3074 80.8421 59.801 75.6265 60.2407 75.1178C60.8861 74.5083 61.4629 73.7816 61.8381 72.9339C62.1124 72.837 62.3504 72.7321 62.6247 72.5948L62.7901 72.5302C62.9958 72.4253 63.0926 72.393 63.0926 72.393C65.1618 71.4227 67.1078 70.2084 68.8891 68.7759C71.5351 66.8551 73.4271 64.0692 74.2378 60.9C74.7421 59.7455 74.7421 58.4779 74.3347 57.2911C74.5363 56.952 74.7138 56.6412 74.7421 56.5725C77.6786 51.863 79.345 46.472 79.5785 40.9257V40.4574C79.5864 39.2777 79.4892 38.0997 79.2881 36.9372Z" fill="white"/>
</g>
<defs>
<clipPath id="clip0">
<rect width="80" height="80" fill="white"/>
</clipPath>
</defs>
</svg>
