<svg width="80" height="80" viewBox="0 0 80 80" fill="none" xmlns="http://www.w3.org/2000/svg">
<g clip-path="url(#clip0)">
<path d="M39.9343 0.0109148C39.9343 0.0109148 63.3802 -1.04123 75.8107 22.5255H37.9393C37.9393 22.5255 30.7922 22.2951 24.687 30.9656C22.9332 34.6048 21.0481 38.3536 23.1636 45.7417C20.1161 40.5787 6.98459 17.7136 6.98459 17.7136C6.98459 17.7136 16.2468 0.942588 39.934 0.0109148H39.9343Z" fill="#EF3F36"/>
<path d="M74.5939 59.8379C74.5939 59.8379 63.7749 80.6752 37.1611 79.6449C40.4495 73.9558 56.1021 46.8486 56.1021 46.8486C56.1021 46.8486 59.8839 40.7761 55.4226 31.1521C53.1533 27.8089 50.8405 24.3122 43.3871 22.4486C49.383 22.3941 75.745 22.4486 75.745 22.4486C75.745 22.4486 85.6208 38.8579 74.5939 59.8379Z" fill="#FCD900"/>
<path d="M5.43906 60.0022C5.43906 60.0022 -7.19938 40.2169 7.00638 17.6806C10.2839 23.3696 25.9365 50.4769 25.9365 50.4769C25.9365 50.4769 29.3127 56.7906 39.8683 57.7329C43.8914 57.4372 48.0784 57.185 53.4278 51.6716C50.4787 56.8893 37.2482 79.6887 37.2482 79.6887C37.2482 79.6887 18.0881 80.0395 5.43875 60.0022H5.43906Z" fill="#61BC5B"/>
<path d="M37.1502 79.8422L42.4772 57.6128C42.4772 57.6128 48.3306 57.1521 53.2414 51.7703C50.1939 57.1306 37.1502 79.8422 37.1502 79.8422Z" fill="#5AB055"/>
<path d="M22.0893 40.1731C22.0893 30.3738 30.0364 22.4268 39.8356 22.4268C49.6349 22.4268 57.5819 30.3738 57.5819 40.1731C57.5819 49.9726 49.6349 57.9194 39.8356 57.9194C30.0364 57.9085 22.0893 49.9726 22.0893 40.1731Z" fill="white"/>
<path d="M25.0596 40.1731C25.0596 32.018 31.6694 25.3973 39.8356 25.3973C47.9907 25.3973 54.6113 32.0071 54.6113 40.1731C54.6113 48.3284 48.0019 54.9491 39.8356 54.9491C31.6803 54.9491 25.0596 48.3284 25.0596 40.1731Z" fill="url(#paint0_linear)"/>
<path d="M75.7339 22.4598L53.8002 28.894C53.8002 28.894 50.49 24.038 43.3762 22.4598C49.5474 22.4268 75.7339 22.4598 75.7339 22.4598Z" fill="#EACA05"/>
<path d="M22.7362 44.9304C19.6557 39.5922 6.98459 17.7136 6.98459 17.7136L23.2293 33.7827C23.2293 33.7827 21.563 37.2137 22.188 42.1242L22.7359 44.9304H22.7362Z" fill="#DF3A32"/>
</g>
<defs>
<linearGradient id="paint0_linear" x1="39.8349" y1="25.606" x2="39.8349" y2="54.0596" gradientUnits="userSpaceOnUse">
<stop stop-color="#86BBE5"/>
<stop offset="1" stop-color="#1072BA"/>
</linearGradient>
<clipPath id="clip0">
<rect width="79.6887" height="80" fill="white" transform="translate(0.15564)"/>
</clipPath>
</defs>
</svg>
