<svg width="80" height="80" viewBox="0 0 80 80" fill="none" xmlns="http://www.w3.org/2000/svg">
<path d="M75.3 21.0125C68.8859 8.46562 55.0406 1.25 39.9859 1.25C21.414 1.25 5.86092 14.325 2.10467 31.8219C6.16716 24.5578 15.5765 19.4562 25.4578 19.4562C37.8437 19.4562 44.3781 27.1016 44.5593 27.2969C47.9968 31.0156 49.7156 35.1703 49.7156 40.2812C49.7156 41.9062 48.8859 44.3156 47.3547 46.3078C47.1093 46.6203 46.3562 47.0641 46.3562 48.0266C46.3562 48.8172 46.8703 49.5766 47.7843 50.2141C52.1375 53.2406 60.3422 52.8406 60.364 52.8406C63.5877 52.8318 66.7501 51.9588 69.5218 50.3125C72.3192 48.6789 74.6409 46.3424 76.2566 43.5347C77.8723 40.727 78.7259 37.5457 78.7328 34.3063C78.8109 27.5203 76.3109 23.0094 75.3 21.0125ZM33.2453 74.3234C30.3474 72.5198 27.8639 70.1236 25.9578 67.2922C20.8109 59.8828 20.6078 52.3547 22.8172 46.0422C24.3883 41.0851 27.5084 36.7629 31.7187 33.7109C40.9375 26.6484 46.5375 32.8281 47.1968 33.5547C46.9797 33.0093 46.7244 32.4798 46.4328 31.9703C44.989 29.4813 42.6828 26.2813 37.5953 23.6094C32.3265 20.8453 26.5656 20.7047 25.464 20.7047C19.4156 20.7047 13.2922 22.7359 8.66248 26.2812C5.57498 28.6406 1.99529 32.6125 1.34373 37.9688C1.17498 39.8922 0.914041 47.7812 4.93748 56.4484C8.33107 63.6888 13.8815 69.7021 20.8274 73.6635C27.7734 77.6249 35.7748 79.3405 43.7343 78.575C37.7781 77.5406 33.4453 74.4125 33.2453 74.3234ZM72.4203 58.9594C72.2363 58.8428 72.0242 58.7779 71.8065 58.7716C71.5887 58.7652 71.3733 58.8177 71.1828 58.9234C70.15 59.4635 69.085 59.9394 67.9937 60.3484C64.5184 61.6484 60.8371 62.3111 57.1265 62.3047C42.8031 62.3047 30.3265 52.4516 30.3265 39.8047C30.3438 38.3521 30.6922 36.9226 31.3453 35.625C28.852 37.824 26.7971 40.4748 25.289 43.4375C22.9578 48.0266 20.1328 57.2078 27.3718 67.1344C28.389 68.5266 30.9656 71.8219 36.1218 74.5828C39.8047 76.5594 43.7781 77.6469 47.325 77.6469C52.8156 77.6469 65.3609 72.4219 72.7937 60.6359C72.8798 60.5015 72.9384 60.3513 72.9662 60.1941C72.994 60.0369 72.9904 59.8758 72.9557 59.72C72.921 59.5642 72.8558 59.4168 72.7639 59.2862C72.672 59.1557 72.5553 59.0446 72.4203 58.9594Z" fill="white"/>
</svg>
