<svg width="80" height="80" viewBox="0 0 80 80" fill="none" xmlns="http://www.w3.org/2000/svg">
<g clip-path="url(#clip0)">
<path d="M72.1873 59.5312C71.1248 60.0938 70.031 60.5938 68.906 61C65.3123 62.3438 61.531 63.0312 57.6873 63.0312C42.906 63.0312 30.031 52.875 30.031 39.8125C30.0623 36.25 32.031 32.9688 35.156 31.2812C21.781 31.8438 18.3435 45.7813 18.3435 53.9375C18.3435 77.0313 39.6248 79.375 44.2185 79.375C46.6873 79.375 50.406 78.6562 52.656 77.9375L53.0623 77.8125C61.6873 74.8438 68.9998 69.0312 73.8748 61.3125C74.2498 60.7188 74.0623 59.9688 73.4998 59.5938C73.0935 59.3438 72.5935 59.3125 72.1873 59.5312Z" fill="url(#paint0_linear)"/>
<path opacity="0.35" d="M72.1873 59.5312C71.1248 60.0938 70.031 60.5938 68.906 61C65.3123 62.3438 61.531 63.0312 57.6873 63.0312C42.906 63.0312 30.031 52.875 30.031 39.8125C30.0623 36.25 32.031 32.9688 35.156 31.2812C21.781 31.8438 18.3435 45.7813 18.3435 53.9375C18.3435 77.0313 39.6248 79.375 44.2185 79.375C46.6873 79.375 50.406 78.6562 52.656 77.9375L53.0623 77.8125C61.6873 74.8438 68.9998 69.0312 73.8748 61.3125C74.2498 60.7188 74.0623 59.9688 73.4998 59.5938C73.0935 59.3438 72.5935 59.3125 72.1873 59.5312Z" fill="url(#paint1_radial)"/>
<path d="M33.0312 75.4375C30.2499 73.7188 27.8437 71.4375 25.9374 68.7813C17.7187 57.5313 20.1874 41.75 31.4374 33.5313C32.6249 32.6875 33.8437 31.9063 35.1562 31.2813C36.1249 30.8125 37.7812 30 39.9999 30.0313C43.1562 30.0625 46.1249 31.5625 48.0312 34.0938C49.2812 35.7813 49.9999 37.8125 50.0312 39.9375C50.0312 39.875 57.6874 15.0625 25.0312 15.0625C11.3124 15.0625 0.0311853 28.0938 0.0311853 39.5C-0.0313147 45.5313 1.28119 51.5313 3.81244 57C12.4374 75.375 33.4374 84.375 52.6874 77.9688C46.0937 80.0313 38.9062 79.125 33.0312 75.4375Z" fill="url(#paint2_linear)"/>
<path opacity="0.41" d="M33.0312 75.4375C30.2499 73.7188 27.8437 71.4375 25.9374 68.7813C17.7187 57.5313 20.1874 41.75 31.4374 33.5313C32.6249 32.6875 33.8437 31.9063 35.1562 31.2813C36.1249 30.8125 37.7812 30 39.9999 30.0313C43.1562 30.0625 46.1249 31.5625 48.0312 34.0938C49.2812 35.7813 49.9999 37.8125 50.0312 39.9375C50.0312 39.875 57.6874 15.0625 25.0312 15.0625C11.3124 15.0625 0.0311853 28.0938 0.0311853 39.5C-0.0313147 45.5313 1.28119 51.5313 3.81244 57C12.4374 75.375 33.4374 84.375 52.6874 77.9688C46.0937 80.0313 38.9062 79.125 33.0312 75.4375Z" fill="url(#paint3_radial)"/>
<path d="M47.5938 46.5312C47.3438 46.8438 46.5625 47.3125 46.5625 48.3125C46.5625 49.125 47.0938 49.9062 48.0312 50.5625C52.5312 53.6875 61 53.2812 61.0312 53.2812C64.375 53.2812 67.625 52.375 70.5 50.6875C76.375 47.25 80 40.9688 80 34.1562C80.0938 27.1563 77.5 22.5 76.4688 20.4375C69.8438 7.46875 55.5312 0 40 0C18.125 0 0.3125 17.5625 0 39.4375C0.15625 28.0312 11.5 18.8125 25 18.8125C26.0938 18.8125 32.3438 18.9062 38.125 21.9688C43.2188 24.6563 45.9062 27.875 47.75 31.0938C49.6875 34.4375 50.0312 38.625 50.0312 40.3125C50.0312 41.9688 49.1875 44.4688 47.5938 46.5312Z" fill="url(#paint4_radial)"/>
<path d="M47.5938 46.5312C47.3438 46.8438 46.5625 47.3125 46.5625 48.3125C46.5625 49.125 47.0938 49.9062 48.0312 50.5625C52.5312 53.6875 61 53.2812 61.0312 53.2812C64.375 53.2812 67.625 52.375 70.5 50.6875C76.375 47.25 80 40.9688 80 34.1562C80.0938 27.1563 77.5 22.5 76.4688 20.4375C69.8438 7.46875 55.5312 0 40 0C18.125 0 0.3125 17.5625 0 39.4375C0.15625 28.0312 11.5 18.8125 25 18.8125C26.0938 18.8125 32.3438 18.9062 38.125 21.9688C43.2188 24.6563 45.9062 27.875 47.75 31.0938C49.6875 34.4375 50.0312 38.625 50.0312 40.3125C50.0312 41.9688 49.1875 44.4688 47.5938 46.5312Z" fill="url(#paint5_radial)"/>
</g>
<defs>
<linearGradient id="paint0_linear" x1="18.3448" y1="55.3188" x2="74.0582" y2="55.3188" gradientUnits="userSpaceOnUse">
<stop stop-color="#0C59A4"/>
<stop offset="1" stop-color="#114A8B"/>
</linearGradient>
<radialGradient id="paint1_radial" cx="0" cy="0" r="1" gradientUnits="userSpaceOnUse" gradientTransform="translate(49.1222 55.7613) scale(29.8033 28.31)">
<stop offset="0.72" stop-opacity="0"/>
<stop offset="0.95" stop-opacity="0.53"/>
<stop offset="1"/>
</radialGradient>
<linearGradient id="paint2_linear" x1="47.7409" y1="31.1706" x2="12.9368" y2="69.0806" gradientUnits="userSpaceOnUse">
<stop stop-color="#1B9DE2"/>
<stop offset="0.16" stop-color="#1595DF"/>
<stop offset="0.67" stop-color="#0680D7"/>
<stop offset="1" stop-color="#0078D4"/>
</linearGradient>
<radialGradient id="paint3_radial" cx="0" cy="0" r="1" gradientUnits="userSpaceOnUse" gradientTransform="translate(22.0651 62.1905) rotate(-81.3826) scale(44.8118 36.2106)">
<stop offset="0.76" stop-opacity="0"/>
<stop offset="0.95" stop-opacity="0.5"/>
<stop offset="1"/>
</radialGradient>
<radialGradient id="paint4_radial" cx="0" cy="0" r="1" gradientUnits="userSpaceOnUse" gradientTransform="translate(8.07863 14.8102) rotate(92.2911) scale(63.2973 134.831)">
<stop stop-color="#35C1F1"/>
<stop offset="0.11" stop-color="#34C1ED"/>
<stop offset="0.23" stop-color="#2FC2DF"/>
<stop offset="0.31" stop-color="#2BC3D2"/>
<stop offset="0.67" stop-color="#36C752"/>
</radialGradient>
<radialGradient id="paint5_radial" cx="0" cy="0" r="1" gradientUnits="userSpaceOnUse" gradientTransform="translate(75.0188 24.1893) rotate(73.7366) scale(30.4129 24.7365)">
<stop stop-color="#66EB6E"/>
<stop offset="1" stop-color="#66EB6E" stop-opacity="0"/>
</radialGradient>
<clipPath id="clip0">
<rect width="80" height="80" fill="white"/>
</clipPath>
</defs>
</svg>
