<svg width="81" height="80" viewBox="0 0 81 80" fill="none" xmlns="http://www.w3.org/2000/svg">
<path d="M30.5855 37.0276C31.398 29.7463 37.1479 23.9026 44.3042 23.9026C52.3354 23.9026 57.8667 29.5276 58.3667 37.0276H30.5855ZM56.898 52.4026C54.8667 56.5901 50.648 59.3088 44.273 59.4651C35.4292 59.6838 30.773 52.1526 30.5542 45.6838H56.8042H58.3355H76.1167C76.273 44.3713 76.3667 43.0588 76.3667 41.6838C76.3667 24.0588 62.0855 9.77759 44.4604 9.77759C26.8354 9.77759 12.5542 24.0588 12.5542 41.6838C12.5542 59.3088 26.8354 73.5901 44.4604 73.5901C58.3355 73.5901 70.1167 64.7463 74.523 52.4026H56.898Z" fill="url(#paint0_radial)" stroke="#2064A9" stroke-miterlimit="10"/>
<path d="M72.7729 20.1213C72.5229 21.0901 72.2729 21.9338 72.1167 22.6526C71.9917 23.2151 71.9292 24.8713 71.9292 24.8713C71.9292 24.8713 73.1167 24.1213 73.398 23.7463C73.648 23.4026 73.9917 21.9338 74.3042 20.4651L72.7729 20.1213Z" fill="url(#paint1_linear)" fill-opacity="0.95"/>
<path d="M74.3665 20.5276C74.5853 19.5588 74.7728 18.5588 74.8665 17.8713C75.2728 15.3401 76.1165 1.8401 58.0853 5.68385C33.8978 10.8088 20.5228 29.7776 18.3978 32.4026C14.3665 37.4026 2.36654 56.7151 5.52279 68.5901C7.36654 75.5276 14.7415 75.4963 20.1165 74.4026L19.7415 72.4963C10.6165 73.9651 9.24154 67.0276 10.4915 61.6213C12.0228 54.8713 16.9915 43.7776 33.054 28.1526C47.304 14.2776 62.429 6.5276 70.304 10.3714C74.4915 12.4026 73.679 16.8088 72.7728 20.1838L74.3665 20.5276Z" fill="#FFB700" fill-opacity="0.95"/>
<path d="M58.0852 5.68384C33.8977 10.8088 20.5227 29.7776 18.3977 32.4026C15.8665 35.5276 10.2415 44.2776 7.14771 53.2776C6.96021 53.9963 6.74146 54.7151 6.49146 55.3401C16.429 29.8713 41.1165 11.8401 59.054 5.49634C58.7415 5.55884 58.3977 5.62134 58.0852 5.68384Z" fill="#FFFFA6"/>
<path d="M20.1167 74.3713C23.0542 73.7463 25.4604 72.8088 25.9917 72.5276C26.4917 72.2463 28.2104 71.3088 29.7729 70.3713L28.3979 69.5901C27.6479 69.8713 26.7729 70.2151 25.8042 70.6213C23.5229 71.5588 21.4604 72.1526 19.7417 72.4026L20.1167 74.3713Z" fill="url(#paint2_linear)" fill-opacity="0.95"/>
<defs>
<radialGradient id="paint0_radial" cx="0" cy="0" r="1" gradientUnits="userSpaceOnUse" gradientTransform="translate(44.0247 36.3886) rotate(51.4109) scale(32.6315 32.8104)">
<stop stop-color="#89EAFE"/>
<stop offset="0.2624" stop-color="#86E8FD"/>
<stop offset="0.4357" stop-color="#7DDFF9"/>
<stop offset="0.5832" stop-color="#6ED2F2"/>
<stop offset="0.7163" stop-color="#59BEE9"/>
<stop offset="0.8397" stop-color="#3EA5DD"/>
<stop offset="0.9544" stop-color="#1C87CF"/>
<stop offset="1" stop-color="#0D79C8"/>
</radialGradient>
<linearGradient id="paint1_linear" x1="73.5172" y1="20.3026" x2="72.4807" y2="25.1196" gradientUnits="userSpaceOnUse">
<stop stop-color="#FFB700"/>
<stop offset="0.8599" stop-color="#FFB700" stop-opacity="0"/>
</linearGradient>
<linearGradient id="paint2_linear" x1="19.9389" y1="73.6923" x2="26.6582" y2="70.9961" gradientUnits="userSpaceOnUse">
<stop stop-color="#FFB700"/>
<stop offset="1" stop-color="#FFB700" stop-opacity="0"/>
</linearGradient>
</defs>
</svg>
