<svg width="80" height="80" viewBox="0 0 80 80" fill="none" xmlns="http://www.w3.org/2000/svg">
<path d="M26.8438 62.5312C22.4062 57.3125 19.5625 49.5938 19.375 40.9375V39.0625C19.5625 30.4062 22.4375 22.6875 26.8438 17.4688C32.5938 10.0313 41.0312 6.6875 50.5625 6.6875C56.4375 6.6875 61.9688 7.09375 66.6562 10.2188C59.625 3.875 50.3438 0.03125 40.1562 0H40C17.9062 0 0 17.9062 0 40C0 61.4375 16.875 78.9688 38.0938 79.9688C38.7188 80 39.375 80 40 80C50.25 80 59.5938 76.1562 66.6562 69.8125C61.9688 72.9375 56.75 73.0625 50.875 73.0625C41.375 73.0938 32.5625 70 26.8438 62.5312Z" fill="url(#paint0_linear)"/>
<path d="M26.8438 17.4688C30.5 13.125 35.25 10.5313 40.4375 10.5313C52.0937 10.5313 61.5312 23.7188 61.5312 40.0312C61.5312 56.3438 52.0937 69.5312 40.4375 69.5312C35.25 69.5312 30.5312 66.9063 26.8438 62.5938C32.5938 70.0312 41.125 74.7812 50.625 74.7812C56.4688 74.7812 61.9688 73 66.6562 69.875C74.8438 62.5 80 51.8438 80 40C80 28.1562 74.8438 17.5 66.6562 10.1875C61.9688 7.0625 56.5 5.28125 50.625 5.28125C41.0938 5.28125 32.5625 10 26.8438 17.4688Z" fill="url(#paint1_linear)"/>
<defs>
<linearGradient id="paint0_linear" x1="33.3301" y1="1.304" x2="33.3301" y2="78.836" gradientUnits="userSpaceOnUse">
<stop offset="0.3" stop-color="#FF1B2D"/>
<stop offset="0.4381" stop-color="#FA1A2C"/>
<stop offset="0.5939" stop-color="#ED1528"/>
<stop offset="0.7581" stop-color="#D60E21"/>
<stop offset="0.9272" stop-color="#B70519"/>
<stop offset="1" stop-color="#A70014"/>
</linearGradient>
<linearGradient id="paint1_linear" x1="53.4166" y1="5.87409" x2="53.4166" y2="74.447" gradientUnits="userSpaceOnUse">
<stop stop-color="#9C0000"/>
<stop offset="0.7" stop-color="#FF4B4B"/>
</linearGradient>
</defs>
</svg>
