<svg width="81" height="80" viewBox="0 0 81 80" fill="none" xmlns="http://www.w3.org/2000/svg">
<g clip-path="url(#clip0)">
<path d="M27.34 17.4646C22.916 22.6807 20.052 30.409 19.852 39.0613V40.9453C20.052 49.6056 22.916 57.3218 27.34 62.534C33.076 69.9942 41.596 74.7184 51.132 74.7184C56.8403 74.705 62.4165 72.9998 67.156 69.8182C59.3471 76.8314 49.0827 80.4735 38.6 79.9506C28.3314 79.4671 18.6435 75.0467 11.5486 67.6074C4.45365 60.1681 0.496858 50.2816 0.500002 40.0013C0.500002 17.9086 18.412 0 40.5 0H40.652C50.4376 0.0265132 59.872 3.64977 67.16 10.1803C62.468 7.08823 56.988 5.28017 51.124 5.28017C41.596 5.28017 33.068 10.0163 27.324 17.4646H27.34ZM80.5 40.0013C80.5073 45.632 79.3223 51.2004 77.0231 56.3402C74.7238 61.4801 71.3624 66.0748 67.16 69.8222C56.904 74.8224 47.344 71.3223 44.172 69.1342C54.252 66.9221 61.86 54.7338 61.86 40.0013C61.86 25.2568 54.256 13.0804 44.172 10.8683C47.34 8.68828 56.904 5.18817 67.16 10.1803C71.3624 13.9277 74.7238 18.5225 77.0231 23.6623C79.3223 28.8022 80.5073 34.3706 80.5 40.0013Z" fill="white"/>
</g>
<defs>
<clipPath id="clip0">
<rect width="80" height="80" fill="white" transform="translate(0.5)"/>
</clipPath>
</defs>
</svg>
