<svg width="80" height="80" viewBox="0 0 80 80" fill="none" xmlns="http://www.w3.org/2000/svg">
<path d="M40 80C17.9025 80 0 62.0975 0 40C0 17.9025 17.9025 0 40 0C62.0975 0 80 17.9025 80 40C80 62.0975 62.0975 80 40 80ZM40 77.5C60.715 77.5 77.5 60.715 77.5 40C77.5 19.285 60.715 2.5 40 2.5C19.285 2.5 2.5 19.285 2.5 40C2.5 60.715 19.285 77.5 40 77.5ZM40 6.6675C40.455 6.6675 40.8325 7.045 40.8325 7.5V10.8325C40.8325 11.94 39.165 11.94 39.165 10.8325V7.5C39.165 7.045 39.5425 6.6675 39.9975 6.6675H40ZM40 68.3325C40.455 68.3325 40.8325 68.71 40.8325 69.165V72.4975C40.8325 73.605 39.165 73.605 39.165 72.4975V69.165C39.165 68.71 39.5425 68.3325 39.9975 68.3325H40ZM63.5675 16.4325C63.645 16.5092 63.7065 16.6005 63.7485 16.7011C63.7904 16.8018 63.812 16.9097 63.812 17.0187C63.812 17.1278 63.7904 17.2357 63.7485 17.3364C63.7065 17.437 63.645 17.5283 63.5675 17.605L61.21 19.9625C60.4275 20.7575 59.245 19.5725 60.0375 18.79L62.395 16.4325C62.4717 16.355 62.563 16.2935 62.6636 16.2515C62.7643 16.2096 62.8722 16.188 62.9812 16.188C63.0903 16.188 63.1982 16.2096 63.2989 16.2515C63.3995 16.2935 63.4908 16.355 63.5675 16.4325ZM19.96 60.04C20.04 60.1153 20.1037 60.2061 20.1473 60.3069C20.1909 60.4077 20.2133 60.5164 20.2133 60.6263C20.2133 60.7361 20.1909 60.8448 20.1473 60.9456C20.1037 61.0464 20.04 61.1372 19.96 61.2125L17.6025 63.57C17.29 63.935 16.73 63.9475 16.3925 63.61C16.055 63.2725 16.0675 62.7125 16.4325 62.4L18.79 60.0425C18.8653 59.9625 18.9561 59.8988 19.0569 59.8552C19.1577 59.8116 19.2664 59.7892 19.3763 59.7892C19.4861 59.7892 19.5948 59.8116 19.6956 59.8552C19.7964 59.8988 19.8872 59.9625 19.9625 60.0425L19.96 60.04ZM16.4325 16.4325C16.5092 16.355 16.6005 16.2935 16.7011 16.2515C16.8018 16.2096 16.9097 16.188 17.0187 16.188C17.1278 16.188 17.2357 16.2096 17.3364 16.2515C17.437 16.2935 17.5283 16.355 17.605 16.4325L19.9625 18.79C20.7575 19.5725 19.5725 20.755 18.79 19.975L16.4325 17.605C16.355 17.5283 16.2935 17.437 16.2515 17.3364C16.2096 17.2357 16.188 17.1278 16.188 17.0187C16.188 16.9097 16.2096 16.8018 16.2515 16.7011C16.2935 16.6005 16.355 16.5092 16.4325 16.4325ZM60.04 60.04C60.1153 59.96 60.2061 59.8963 60.3069 59.8527C60.4077 59.8091 60.5164 59.7867 60.6263 59.7867C60.7361 59.7867 60.8448 59.8091 60.9456 59.8527C61.0464 59.8963 61.1372 59.96 61.2125 60.04L63.57 62.3975C63.935 62.71 63.9475 63.27 63.61 63.6075C63.2725 63.945 62.7125 63.9325 62.4 63.5675L60.0425 61.21C59.9625 61.1347 59.8988 61.0439 59.8552 60.9431C59.8116 60.8423 59.7892 60.7336 59.7892 60.6237C59.7892 60.5139 59.8116 60.4052 59.8552 60.3044C59.8988 60.2036 59.9625 60.1128 60.0425 60.0375L60.04 60.04ZM6.6675 40C6.6675 39.545 7.045 39.1675 7.5 39.1675H10.8325C11.94 39.1675 11.94 40.835 10.8325 40.835H7.5C7.27961 40.8337 7.06862 40.7456 6.91278 40.5897C6.75694 40.4339 6.66881 40.2229 6.6675 40.0025V40ZM68.3325 40C68.3325 39.545 68.71 39.1675 69.165 39.1675H72.4975C73.605 39.1675 73.605 40.835 72.4975 40.835H69.165C68.9446 40.8337 68.7336 40.7456 68.5778 40.5897C68.4219 40.4339 68.3338 40.2229 68.3325 40.0025V40ZM53.02 9.3225C53.45 9.4925 53.645 9.9875 53.4625 10.4025L52.16 13.475C52.1196 13.5797 52.0586 13.6752 51.9806 13.7559C51.9025 13.8366 51.8091 13.9007 51.7058 13.9446C51.6025 13.9884 51.4914 14.011 51.3792 14.0111C51.267 14.0112 51.1559 13.9887 51.0525 13.945C50.6225 13.7625 50.4275 13.255 50.6225 12.825L51.925 9.765C51.9676 9.66382 52.0297 9.57206 52.1079 9.495C52.186 9.41793 52.2787 9.35709 52.3804 9.31596C52.4822 9.27483 52.5911 9.25424 52.7009 9.25536C52.8106 9.25648 52.9191 9.2793 53.02 9.3225ZM28.9325 66.08C29.35 66.2625 29.5575 66.745 29.375 67.175L28.0725 70.235C27.6175 71.2125 26.1575 70.5875 26.535 69.5975L27.8375 66.525C27.8795 66.4234 27.9414 66.3312 28.0194 66.2537C28.0975 66.1763 28.1902 66.1152 28.2922 66.074C28.3941 66.0328 28.5032 66.0123 28.6132 66.0138C28.7231 66.0153 28.8317 66.0386 28.9325 66.0825V66.08ZM70.9125 27.5125C70.9526 27.6143 70.9723 27.7229 70.9703 27.8323C70.9684 27.9417 70.945 28.0496 70.9013 28.1499C70.8577 28.2502 70.7947 28.3409 70.716 28.4169C70.6372 28.4928 70.5443 28.5525 70.4425 28.5925L67.3575 29.8425C67.1538 29.9237 66.9263 29.9214 66.7243 29.8363C66.5222 29.7512 66.3617 29.59 66.2775 29.3875C66.2343 29.2859 66.2118 29.1766 66.2114 29.0662C66.211 28.9558 66.2326 28.8464 66.2749 28.7444C66.3173 28.6424 66.3796 28.5499 66.4582 28.4723C66.5367 28.3947 66.63 28.3336 66.7325 28.2925L69.8175 27.0425C70.0252 26.9616 70.2563 26.9656 70.4612 27.0535C70.666 27.1414 70.828 27.3062 70.9125 27.5125ZM13.725 50.6125C13.7683 50.713 13.7909 50.8213 13.7913 50.9307C13.7917 51.0401 13.7701 51.1486 13.7276 51.2494C13.6851 51.3503 13.6226 51.4415 13.544 51.5177C13.4654 51.5938 13.3722 51.6533 13.27 51.6925L10.185 52.9425C10.0825 52.9879 9.97205 53.0124 9.86001 53.0147C9.74796 53.017 9.63658 52.9969 9.53235 52.9558C9.42812 52.9146 9.33312 52.8531 9.25289 52.7748C9.17265 52.6966 9.10878 52.6032 9.065 52.5C9.02426 52.3957 9.00477 52.2844 9.00768 52.1724C9.0106 52.0605 9.03586 51.9503 9.08198 51.8483C9.12809 51.7463 9.19414 51.6545 9.27623 51.5784C9.35832 51.5023 9.4548 51.4433 9.56 51.405L12.645 50.155C12.7455 50.1117 12.8538 50.0891 12.9632 50.0887C13.0727 50.0883 13.1811 50.1099 13.2819 50.1524C13.3828 50.1949 13.474 50.2574 13.5502 50.336C13.6263 50.4146 13.6858 50.5078 13.725 50.61V50.6125ZM27.5125 9.0875C27.6142 9.04706 27.723 9.02714 27.8324 9.0289C27.9419 9.03065 28.0499 9.05405 28.1503 9.09773C28.2507 9.14142 28.3414 9.20453 28.4173 9.28344C28.4932 9.36235 28.5528 9.45549 28.5925 9.5575L29.8425 12.6425C30.26 13.67 28.7225 14.295 28.2925 13.2675L27.055 10.1825C27.0122 10.0808 26.99 9.97165 26.9897 9.86131C26.9894 9.75098 27.0111 9.64169 27.0534 9.53981C27.0957 9.43792 27.1579 9.34546 27.2363 9.26782C27.3147 9.19017 27.4077 9.12887 27.51 9.0875H27.5125ZM50.6125 66.275C50.7142 66.2322 50.8234 66.21 50.9337 66.2097C51.044 66.2094 51.1533 66.2311 51.2552 66.2734C51.3571 66.3157 51.4495 66.3779 51.5272 66.4563C51.6048 66.5347 51.6661 66.6277 51.7075 66.73L52.945 69.815C52.9904 69.9175 53.0149 70.0279 53.0172 70.14C53.0195 70.252 52.9994 70.3634 52.9583 70.4677C52.9171 70.5719 52.8556 70.6669 52.7773 70.7471C52.6991 70.8273 52.6057 70.8912 52.5025 70.935C52.3982 70.9757 52.2868 70.9952 52.1749 70.9923C52.063 70.9894 51.9528 70.9641 51.8508 70.918C51.7488 70.8719 51.657 70.8059 51.5809 70.7238C51.5047 70.6417 51.4458 70.5452 51.4075 70.44L50.1575 67.355C50.1142 67.2545 50.0916 67.1462 50.0912 67.0368C50.0908 66.9274 50.1124 66.8189 50.1549 66.7181C50.1974 66.6172 50.2599 66.526 50.3385 66.4498C50.4171 66.3737 50.5103 66.3142 50.6125 66.275ZM9.3225 26.98C9.36295 26.8789 9.4233 26.787 9.49997 26.7097C9.57663 26.6324 9.66805 26.5713 9.76879 26.53C9.86953 26.4888 9.97754 26.4682 10.0864 26.4694C10.1953 26.4707 10.3028 26.4939 10.4025 26.5375L13.475 27.84C14.4375 28.295 13.8275 29.755 12.825 29.3775L9.765 28.075C9.66382 28.0324 9.57206 27.9703 9.495 27.8921C9.41793 27.814 9.35709 27.7213 9.31596 27.6196C9.27483 27.5178 9.25424 27.4089 9.25536 27.2991C9.25648 27.1894 9.2793 27.0809 9.3225 26.98ZM66.08 51.0675C66.1696 50.8662 66.3338 50.7076 66.5381 50.625C66.7424 50.5425 66.9707 50.5425 67.175 50.625L70.235 51.9275C70.6775 52.0975 70.9 52.605 70.7175 53.035C70.535 53.465 70.015 53.66 69.5975 53.465L66.525 52.1625C66.4234 52.1205 66.3312 52.0586 66.2537 51.9806C66.1763 51.9025 66.1152 51.8098 66.074 51.7078C66.0328 51.6059 66.0123 51.4968 66.0138 51.3868C66.0153 51.2769 66.0386 51.1683 66.0825 51.0675H66.08ZM42.93 42.93L37.07 37.07L23.2675 56.7325L42.93 42.93ZM63.5675 16.4325L44.1275 44.1275L16.4325 63.5675L35.8725 35.8725L63.5675 16.4325Z" fill="white"/>
</svg>
