<svg width="80" height="80" viewBox="0 0 80 80" fill="none" xmlns="http://www.w3.org/2000/svg">
<g clip-path="url(#clip0)">
<g filter="url(#filter0_d)">
<path d="M40 78.125C61.401 78.125 78.75 60.776 78.75 39.375C78.75 17.974 61.401 0.625 40 0.625C18.599 0.625 1.25 17.974 1.25 39.375C1.25 60.776 18.599 78.125 40 78.125Z" fill="url(#paint0_linear)"/>
</g>
<path d="M40 75.2187C59.796 75.2187 75.8438 59.1709 75.8438 39.3749C75.8438 19.579 59.796 3.53119 40 3.53119C20.204 3.53119 4.15625 19.579 4.15625 39.3749C4.15625 59.1709 20.204 75.2187 40 75.2187Z" fill="url(#paint1_radial)"/>
<path d="M40.0605 12.25C39.8183 12.25 39.6064 12.0684 39.6064 11.8263V5.49907C39.6064 5.25688 39.8183 5.07532 40.0605 5.07532C40.3027 5.07532 40.5146 5.25688 40.5146 5.49907V11.8263C40.4843 12.0684 40.3027 12.25 40.0605 12.25Z" fill="#F3F3F3"/>
<path d="M40.0605 12.2802C39.788 12.2802 39.5762 12.0684 39.5762 11.8262V5.49898C39.5762 5.2568 39.788 5.04492 40.0605 5.04492C40.333 5.04492 40.5449 5.2568 40.5449 5.49898V11.8262C40.5449 12.0684 40.3027 12.2802 40.0605 12.2802ZM40.0605 5.10523C39.8487 5.10523 39.6368 5.28711 39.6368 5.49898V11.8262C39.6368 12.038 39.8184 12.2199 40.0605 12.2199C40.2724 12.2199 40.4843 12.038 40.4843 11.8262V5.49898C40.4543 5.28711 40.2724 5.10523 40.0605 5.10523Z" fill="white"/>
<path d="M43.0881 8.85936C42.8459 8.82905 42.6643 8.64749 42.6643 8.4053L42.8762 5.58968C42.9062 5.3478 43.1184 5.16593 43.3606 5.19624C43.6027 5.22655 43.7843 5.40843 43.7843 5.65061L43.5724 8.46593C43.5421 8.70811 43.3302 8.88968 43.0881 8.85968V8.85936Z" fill="#F3F3F3"/>
<path d="M43.0881 8.88968C42.8156 8.85937 42.634 8.64749 42.634 8.4053L42.8459 5.58968C42.8762 5.3478 43.0881 5.13593 43.3606 5.16593C43.6328 5.19624 43.8147 5.40843 43.8147 5.6503L43.6028 8.46593C43.5725 8.73843 43.3606 8.91999 43.0881 8.88968ZM43.3606 5.22655C43.1487 5.22655 42.9365 5.37812 42.9365 5.58999L42.7247 8.40562C42.7247 8.61718 42.8762 8.79905 43.1184 8.82905C43.3303 8.82905 43.5422 8.6778 43.5422 8.46593L43.754 5.6503C43.754 5.43843 43.5725 5.25687 43.3603 5.22655H43.3606Z" fill="white"/>
<path d="M45.3587 12.795C45.1162 12.7343 44.965 12.5225 44.9953 12.2803L46.2366 6.07403C46.2972 5.83215 46.5091 5.68059 46.7512 5.74121C46.9934 5.80184 47.1447 6.01371 47.1144 6.2559L45.8731 12.4622C45.8428 12.6737 45.6006 12.8253 45.3584 12.795H45.3587Z" fill="#F3F3F3"/>
<path d="M45.3588 12.8253C45.086 12.7647 44.9347 12.5225 44.965 12.2803L46.2063 6.07403C46.2669 5.83216 46.5091 5.65028 46.7813 5.71091C47.0538 5.77153 47.2053 6.01372 47.175 6.25591L45.9338 12.4622C45.8731 12.704 45.631 12.8556 45.3588 12.8253ZM46.7813 5.77153C46.5694 5.74122 46.3575 5.86216 46.2969 6.07435L45.056 12.2806C45.0256 12.4922 45.1466 12.704 45.3888 12.765C45.6006 12.795 45.8125 12.6737 45.8731 12.4618L47.1144 6.25591C47.1447 6.01372 46.9934 5.83216 46.7813 5.77153Z" fill="white"/>
<path d="M48.9913 10.0703C48.9336 10.0564 48.8793 10.0313 48.8313 9.99636C48.7834 9.96144 48.7428 9.91741 48.7119 9.8668C48.681 9.81618 48.6603 9.75996 48.6512 9.70137C48.642 9.64277 48.6445 9.58294 48.6585 9.5253L49.4153 6.80093C49.4756 6.55874 49.7178 6.43749 49.96 6.49812C50.2022 6.55874 50.3538 6.80093 50.2931 7.04312L49.5363 9.7678C49.4756 10.0097 49.2335 10.1309 48.9913 10.0703Z" fill="#F3F3F3"/>
<path d="M48.9912 10.1007C48.749 10.04 48.5674 9.76753 48.6584 9.52565L49.4153 6.80065C49.4756 6.55878 49.7481 6.40721 49.9903 6.46784C50.2324 6.52846 50.414 6.80096 50.3234 7.04284L49.5665 9.76784C49.5059 10.0097 49.2637 10.1613 48.9915 10.1007H48.9912ZM49.9903 6.55878C49.7784 6.49815 49.5362 6.6194 49.4756 6.83128L48.719 9.55565C48.6584 9.76752 48.7793 9.97971 49.0215 10.04C49.2334 10.1007 49.4756 9.97971 49.5362 9.76784L50.2931 7.04284C50.3234 6.83128 50.2024 6.6194 49.9903 6.55846V6.55878Z" fill="white"/>
<path d="M50.4746 14.339C50.2325 14.2481 50.1418 13.9756 50.2325 13.7637L52.6543 7.92088C52.745 7.709 53.0178 7.58775 53.2293 7.709C53.4718 7.79963 53.5628 8.07244 53.4718 8.284L51.05 14.1268C50.9593 14.339 50.6865 14.4599 50.475 14.339H50.4746Z" fill="#F3F3F3"/>
<path d="M50.4747 14.3693C50.3584 14.325 50.2644 14.2364 50.2133 14.1228C50.1622 14.0093 50.1582 13.8802 50.2022 13.7637L52.6241 7.92089C52.715 7.6787 52.9875 7.58776 53.26 7.6787C53.3763 7.72303 53.4703 7.81167 53.5214 7.9252C53.5725 8.03872 53.5765 8.16787 53.5325 8.28433L51.1106 14.1271C50.9894 14.3693 50.7169 14.4903 50.4747 14.3693ZM53.2297 7.73932C53.0178 7.6487 52.7756 7.73933 52.6847 7.9512L50.2628 13.794C50.1722 14.0059 50.2931 14.2178 50.505 14.3087C50.7169 14.3993 50.9591 14.3087 51.05 14.0968L53.4719 8.25401C53.5325 8.07214 53.4416 7.82995 53.2297 7.73932Z" fill="white"/>
<path d="M54.5618 12.4015C54.3496 12.2803 54.2586 12.0381 54.3496 11.8262L55.6211 9.3137C55.7421 9.10151 55.9843 9.01057 56.2268 9.13182C56.4386 9.25307 56.5293 9.49526 56.4386 9.70682L55.1668 12.2196C55.0458 12.4315 54.8036 12.5228 54.5614 12.4015H54.5618Z" fill="#F3F3F3"/>
<path d="M54.5619 12.4319C54.3194 12.3107 54.2288 12.0382 54.3497 11.796L55.6213 9.28347C55.7422 9.04097 56.015 8.95034 56.2569 9.07128C56.4991 9.19253 56.59 9.46503 56.4688 9.70722L55.1975 12.2197C55.0763 12.4619 54.8038 12.5528 54.5616 12.4316L54.5619 12.4319ZM56.2269 9.1319C56.0147 9.04128 55.7725 9.10159 55.6819 9.31347L54.4103 11.8263C54.3197 12.0078 54.4103 12.25 54.5919 12.3713C54.8038 12.4619 55.046 12.4016 55.1369 12.1897L56.4085 9.6769C56.4991 9.49534 56.4085 9.25315 56.2269 9.1319Z" fill="white"/>
<path d="M55.1671 16.8818C54.9553 16.7305 54.8946 16.458 55.0459 16.2765L58.5578 11.039C58.6787 10.8271 58.9515 10.7968 59.1631 10.918C59.3753 11.0693 59.4356 11.3418 59.2843 11.5234L55.7724 16.7609C55.6515 16.9727 55.379 17.0334 55.1671 16.8818Z" fill="#F3F3F3"/>
<path d="M55.1672 16.9122C54.9553 16.7609 54.8947 16.4581 55.0159 16.2462L58.5275 11.0087C58.6787 10.7969 58.9512 10.7362 59.1934 10.8878C59.4053 11.039 59.4659 11.3419 59.345 11.5537L55.8331 16.7912C55.6818 17.0031 55.379 17.0634 55.1672 16.9122ZM59.1631 10.9484C58.9818 10.8272 58.709 10.8575 58.5881 11.039L55.0762 16.2765C54.9553 16.4578 55.0156 16.7003 55.1975 16.8212C55.379 16.9425 55.6515 16.9122 55.7725 16.7306L59.2843 11.5234C59.4053 11.3419 59.345 11.0694 59.1631 10.9484Z" fill="white"/>
<path d="M59.587 15.7618C59.4057 15.6103 59.3451 15.3378 59.4963 15.1562L61.2523 12.9462C61.4035 12.765 61.676 12.7343 61.8576 12.8859C62.0395 13.0372 62.0998 13.3097 61.9482 13.4912L60.1926 15.7012C60.0413 15.8828 59.7688 15.9131 59.5873 15.7618H59.587Z" fill="#F3F3F3"/>
<path d="M59.557 15.7922C59.3451 15.6406 59.3148 15.3378 59.4663 15.1259L61.222 12.9163C61.3732 12.7041 61.676 12.6738 61.8879 12.8556C62.0998 13.0069 62.1301 13.3097 61.9785 13.5216L60.2229 15.7316C60.0716 15.9434 59.7688 15.9738 59.557 15.7922ZM61.8273 12.9159C61.646 12.7647 61.4035 12.795 61.2523 12.9766L59.4963 15.1866C59.3754 15.3681 59.4057 15.6103 59.587 15.7616C59.7688 15.9131 60.011 15.8828 60.1623 15.7013L61.9182 13.4913C62.0395 13.3097 62.0088 13.0372 61.8276 12.9163L61.8273 12.9159Z" fill="white"/>
<path d="M59.2844 20.3028C59.1028 20.1212 59.1028 19.8487 59.2844 19.6972L63.7647 15.2472C63.9465 15.0656 64.2187 15.0956 64.3703 15.2472C64.5215 15.3984 64.5519 15.7012 64.3703 15.8525L59.9203 20.3028C59.7384 20.4844 59.4659 20.4844 59.2844 20.3028Z" fill="#F3F3F3"/>
<path d="M59.2539 20.3331C59.1666 20.2443 59.1177 20.1247 59.1177 20.0001C59.1177 19.8756 59.1666 19.756 59.2539 19.6672L63.7342 15.2168C63.8231 15.1294 63.9427 15.0804 64.0674 15.0804C64.192 15.0804 64.3116 15.1294 64.4005 15.2168C64.4878 15.3057 64.5367 15.4252 64.5367 15.5498C64.5367 15.6744 64.4878 15.7939 64.4005 15.8828L59.9199 20.3328C59.831 20.4201 59.7114 20.469 59.5869 20.469C59.4623 20.469 59.3428 20.4201 59.2539 20.3328V20.3331ZM64.3702 15.2472C64.2189 15.0956 63.9464 15.0956 63.7952 15.2472L59.3145 19.6972C59.163 19.8487 59.163 20.1212 59.3145 20.2725C59.4658 20.424 59.7383 20.424 59.8895 20.2725L64.3702 15.8225C64.5214 15.6709 64.5214 15.4287 64.3702 15.2472Z" fill="white"/>
<path d="M63.8252 20.0606C63.674 19.879 63.674 19.6065 63.8556 19.455L66.0049 17.6387C66.1865 17.4875 66.459 17.5175 66.6106 17.6993C66.7618 17.8809 66.7618 18.1534 66.5802 18.3047L64.4309 20.1212C64.249 20.2725 63.9765 20.2422 63.8252 20.0606Z" fill="#F3F3F3"/>
<path d="M63.7951 20.091C63.6135 19.8791 63.6438 19.5763 63.8254 19.425L65.9747 17.6084C66.1563 17.4269 66.4591 17.4572 66.6407 17.6691C66.8226 17.8809 66.7922 18.1838 66.6107 18.335L64.461 20.1516C64.2797 20.3328 63.9766 20.3028 63.7954 20.091H63.7951ZM66.5804 17.6994C66.4288 17.5178 66.1866 17.5178 66.0054 17.6388L63.8557 19.4553C63.7044 19.6066 63.6741 19.8488 63.8254 20.0303C63.9766 20.2119 64.2191 20.2119 64.4004 20.091L66.5501 18.2744C66.7316 18.1231 66.7316 17.8809 66.5804 17.6994Z" fill="white"/>
<path d="M62.6142 24.42C62.463 24.2081 62.5236 23.9356 62.7355 23.8143L68.003 20.3028C68.2149 20.1815 68.4874 20.2421 68.6083 20.424C68.7599 20.6359 68.6992 20.9084 68.4874 21.0293L63.2199 24.5409C63.038 24.6621 62.7655 24.6015 62.6142 24.42Z" fill="#F3F3F3"/>
<path d="M62.584 24.42C62.4327 24.2081 62.4933 23.9053 62.7052 23.754L67.9727 20.2421C68.1846 20.0909 68.4874 20.1515 68.6387 20.3937C68.7902 20.6056 68.7293 20.9084 68.5177 21.0593L63.2502 24.5715C63.038 24.7231 62.7355 24.6625 62.584 24.4203V24.42ZM68.578 20.4543C68.4571 20.2725 68.2149 20.2118 68.0333 20.3331L62.7655 23.8446C62.5843 23.9659 62.5233 24.2081 62.6749 24.42C62.7958 24.6015 63.038 24.6621 63.2199 24.5412L68.4874 21.0293C68.669 20.8781 68.6993 20.6356 68.578 20.4543Z" fill="white"/>
<path d="M67.1253 25.0559C67.004 24.8437 67.0647 24.5716 67.2765 24.4503L69.7287 23.0578C69.9406 22.9366 70.2131 23.0275 70.334 23.2391C70.4553 23.4512 70.3947 23.7234 70.1828 23.8447L67.7306 25.2375C67.5187 25.3584 67.2462 25.2678 67.125 25.0556L67.1253 25.0559Z" fill="#F3F3F3"/>
<path d="M67.095 25.0859C66.9738 24.8437 67.0344 24.5712 67.2463 24.4503L69.6985 23.0578C69.9103 22.9366 70.2131 23.0275 70.3341 23.2391C70.4553 23.4816 70.3947 23.7541 70.1828 23.875L67.7306 25.2678C67.5188 25.3887 67.216 25.2978 67.095 25.0859ZM70.3038 23.2697C70.1828 23.0578 69.9406 22.9972 69.7591 23.1181L67.3069 24.5109C67.1253 24.6319 67.0647 24.8741 67.1553 25.0556C67.2766 25.2675 67.5188 25.3281 67.7003 25.2072L70.1525 23.8144C70.3341 23.7237 70.3947 23.4816 70.3038 23.2697Z" fill="white"/>
<path d="M65.097 29.0822C65.0063 28.84 65.097 28.5978 65.3392 28.5072L71.182 26.0853C71.3938 25.9943 71.6663 26.1153 71.757 26.3272C71.8479 26.5693 71.757 26.8115 71.5148 26.9022L65.6723 29.324C65.4601 29.415 65.1879 29.324 65.097 29.0822Z" fill="#F3F3F3"/>
<path d="M65.0664 29.1121C64.9758 28.8703 65.0664 28.5978 65.3086 28.4765L71.1514 26.0546C71.2678 26.0108 71.3969 26.0148 71.5104 26.0659C71.6238 26.1169 71.7124 26.2109 71.7567 26.3271C71.8477 26.5693 71.7567 26.8418 71.5146 26.9628L65.6721 29.3846C65.5556 29.4286 65.4265 29.4247 65.313 29.3737C65.1995 29.3227 65.1108 29.2287 65.0664 29.1124V29.1121ZM71.6964 26.3574C71.6055 26.1456 71.3633 26.0546 71.1817 26.1153L65.3389 28.5371C65.1271 28.6278 65.0361 28.8703 65.1271 29.0821C65.2177 29.294 65.4599 29.385 65.6418 29.3243L71.4842 26.9024C71.6964 26.8118 71.7874 26.5693 71.6964 26.3574Z" fill="white"/>
<path d="M69.3653 30.5959C69.2746 30.3534 69.3956 30.1115 69.6378 30.0206L72.3018 29.1425C72.5137 29.0518 72.7862 29.2031 72.8468 29.415C72.9375 29.6572 72.8165 29.8993 72.5743 29.9903L69.9103 30.8684C69.6984 30.959 69.4562 30.8381 69.3653 30.5956V30.5959Z" fill="#F3F3F3"/>
<path d="M69.3349 30.6259C69.2443 30.3837 69.3652 30.1112 69.638 30.0206L72.3018 29.1425C72.544 29.0518 72.8165 29.2031 72.9074 29.4456C72.998 29.6875 72.8771 29.96 72.6043 30.0509L69.9405 30.929C69.6983 30.9893 69.4258 30.8681 69.3349 30.6259ZM72.8468 29.4759C72.7861 29.2637 72.544 29.1425 72.3321 29.2031L69.668 30.0812C69.4562 30.1415 69.3652 30.3837 69.4258 30.5959C69.4865 30.8078 69.7287 30.9287 69.9405 30.8681L72.6046 29.9903C72.8165 29.8996 72.9074 29.6875 72.8468 29.4756V29.4759Z" fill="white"/>
<path d="M66.6408 34.1984C66.5802 33.9562 66.7315 33.714 66.9736 33.6837L73.1799 32.4728C73.4218 32.4121 73.634 32.5937 73.6943 32.8359C73.7549 33.0781 73.6036 33.3203 73.3615 33.3506L67.1552 34.5615C66.913 34.5918 66.6708 34.4406 66.6405 34.1984H66.6408Z" fill="#F3F3F3"/>
<path d="M66.5804 34.1984C66.5197 33.9259 66.7013 33.6837 66.9435 33.6231L73.1497 32.4121C73.3919 32.3515 73.6341 32.5334 73.6944 32.8059C73.7551 33.0781 73.5735 33.3203 73.3313 33.3809L67.1251 34.5918C66.8832 34.6524 66.6407 34.4709 66.5804 34.1981V34.1984ZM73.6341 32.8359C73.6038 32.624 73.3919 32.4728 73.1801 32.5031L66.9738 33.714C66.7619 33.7443 66.6107 33.9862 66.671 34.1984C66.7013 34.4103 66.9132 34.5615 67.1254 34.5312L73.3313 33.3203C73.5432 33.2596 73.6944 33.0478 73.6341 32.8359Z" fill="white"/>
<path d="M70.5158 36.5294C70.4855 36.2872 70.6368 36.0753 70.8789 36.045L73.6639 35.7119C73.9061 35.6819 74.1183 35.8634 74.1483 36.1056C74.1786 36.3478 74.0274 36.5597 73.7852 36.59L70.9999 36.9228C70.788 36.9531 70.5458 36.7716 70.5155 36.5294H70.5158Z" fill="#F3F3F3"/>
<path d="M70.4857 36.5294C70.4554 36.2569 70.637 36.0147 70.8792 35.9844L73.6642 35.6516C73.9064 35.6212 74.1485 35.8028 74.1789 36.0753C74.2092 36.3478 74.0276 36.59 73.7854 36.6203L71.0001 36.9531C70.7582 36.9834 70.5157 36.8019 70.4857 36.5294ZM74.1485 36.1056C74.1185 35.8937 73.9067 35.7119 73.6945 35.7422L70.9095 36.0753C70.6976 36.1056 70.546 36.3175 70.5764 36.5294C70.6067 36.7412 70.8185 36.9231 71.0304 36.8928L73.8157 36.5597C74.0276 36.5294 74.1789 36.3175 74.1489 36.1056H74.1485Z" fill="white"/>
<path d="M67.1252 39.4659C67.1252 39.2237 67.3065 39.0118 67.549 39.0118H73.8762C74.1184 39.0118 74.2999 39.2237 74.2999 39.4659C74.2999 39.7081 74.1184 39.92 73.8762 39.92H67.549C67.3068 39.92 67.1252 39.7081 67.1252 39.4659Z" fill="#F3F3F3"/>
<path d="M67.095 39.4659C67.095 39.1934 67.3068 38.9815 67.549 38.9815H73.8762C74.1184 38.9815 74.3303 39.1934 74.3303 39.4659C74.3303 39.7384 74.1184 39.9503 73.8762 39.9503H67.549C67.3068 39.9503 67.095 39.7384 67.095 39.4659ZM74.2697 39.4962C74.2697 39.2843 74.0881 39.0724 73.8759 39.0724H67.5493C67.3375 39.0724 67.1556 39.2537 67.1556 39.4962C67.1556 39.7081 67.3375 39.9199 67.5493 39.9199H73.8765C74.0884 39.8896 74.27 39.7081 74.27 39.4962H74.2697Z" fill="white"/>
<path d="M70.4857 42.5234C70.5157 42.2812 70.6975 42.0997 70.9397 42.0997L73.7553 42.3115C73.9972 42.3419 74.1788 42.5537 74.1485 42.7959C74.1185 43.0381 73.9366 43.2197 73.6944 43.2197L70.8791 43.0078C70.6672 42.9775 70.4854 42.7656 70.4854 42.5234H70.4857Z" fill="#F3F3F3"/>
<path d="M70.4553 42.5234C70.4856 42.2509 70.6975 42.0693 70.9397 42.0693L73.7553 42.2812C73.9972 42.3115 74.2091 42.5234 74.1788 42.7959C74.1488 43.0684 73.9366 43.25 73.6944 43.25L70.8791 43.0381C70.6369 43.0078 70.4553 42.7656 70.4553 42.5234ZM74.1488 42.7959C74.1788 42.584 73.9972 42.3721 73.7853 42.3721L70.9697 42.1603C70.7581 42.1603 70.5763 42.3115 70.5459 42.554C70.5159 42.7656 70.6975 42.9775 70.9094 42.9775L73.725 43.1893C73.9366 43.1893 74.1184 43.0081 74.1488 42.7959Z" fill="white"/>
<path d="M66.5803 44.7334C66.6409 44.4912 66.8528 44.3397 67.095 44.3703L73.3009 45.6116C73.5431 45.6719 73.6947 45.8837 73.634 46.1259C73.5734 46.3681 73.3615 46.5197 73.1193 46.4894L66.9131 45.2481C66.7012 45.2178 66.55 44.9756 66.5803 44.7334Z" fill="#F3F3F3"/>
<path d="M66.55 44.7334C66.6106 44.4609 66.8528 44.3096 67.095 44.3396L73.3009 45.5812C73.5431 45.6415 73.7247 45.8837 73.664 46.1562C73.6037 46.4287 73.3615 46.5803 73.1194 46.55L66.9131 45.3087C66.6709 45.2481 66.5197 45.0059 66.55 44.7337V44.7334ZM73.6037 46.1562C73.634 45.9443 73.5131 45.7325 73.3009 45.6718L67.0947 44.4306C66.8831 44.4006 66.6709 44.5215 66.6103 44.7637C66.5803 44.9756 66.7012 45.1874 66.9134 45.2481L73.1194 46.4893C73.3615 46.5196 73.5431 46.3681 73.6037 46.1562Z" fill="white"/>
<path d="M69.305 48.3662C69.3189 48.3086 69.344 48.2542 69.3789 48.2063C69.4138 48.1584 69.4578 48.1178 69.5084 48.0869C69.5589 48.056 69.6151 48.0354 69.6737 48.0262C69.7322 48.017 69.792 48.0195 69.8496 48.0334L72.5743 48.7899C72.8165 48.8506 72.9375 49.0931 72.8772 49.3349C72.8633 49.3926 72.8382 49.447 72.8033 49.495C72.7684 49.543 72.7244 49.5836 72.6737 49.6145C72.6231 49.6455 72.5669 49.6661 72.5083 49.6753C72.4497 49.6845 72.3898 49.682 72.3322 49.6681L69.6075 48.9112C69.3653 48.8506 69.2443 48.6084 69.3046 48.3662H69.305Z" fill="#F3F3F3"/>
<path d="M69.2744 48.3662C69.335 48.1241 69.6075 47.9425 69.8497 48.0334L72.5744 48.79C72.8166 48.8506 72.9682 49.1231 72.9075 49.3653C72.8469 49.6075 72.5744 49.7891 72.3322 49.6984L69.6075 48.9416C69.3653 48.8809 69.2138 48.6388 69.2747 48.3666L69.2744 48.3662ZM72.8166 49.3653C72.8772 49.1534 72.756 48.9113 72.5441 48.8506L69.8194 48.0937C69.6075 48.0331 69.3957 48.1544 69.335 48.3966C69.2747 48.6084 69.3957 48.8506 69.6075 48.9113L72.3322 49.6681C72.5441 49.6984 72.756 49.5775 72.8166 49.3653Z" fill="white"/>
<path d="M65.0363 49.8193C65.1269 49.5771 65.3997 49.4862 65.6113 49.5771L71.4544 51.999C71.6663 52.0896 71.7872 52.3625 71.6966 52.574C71.6057 52.8165 71.3332 52.9071 71.1213 52.8165L65.2785 50.3946C65.0363 50.304 64.9454 50.0312 65.0363 49.8196V49.8193Z" fill="#F3F3F3"/>
<path d="M65.0059 49.789C65.0502 49.6727 65.1389 49.5787 65.2524 49.5276C65.3659 49.4765 65.4951 49.4726 65.6115 49.5165L71.4543 51.9384C71.6965 52.0293 71.7871 52.3018 71.6965 52.5743C71.6522 52.6907 71.5636 52.7847 71.45 52.8358C71.3365 52.8868 71.2074 52.8908 71.0909 52.8468L65.2481 50.425C65.0059 50.3037 64.9153 50.0312 65.0059 49.789ZM71.6359 52.544C71.7265 52.3322 71.6359 52.09 71.424 51.999L65.5812 49.5772C65.3693 49.4865 65.1575 49.6075 65.0665 49.8193C64.9759 50.0312 65.0665 50.2734 65.2784 50.3643L71.1212 52.7862C71.3331 52.8468 71.5753 52.7559 71.6359 52.544Z" fill="white"/>
<path d="M67.004 53.9062C67.1253 53.6944 67.3671 53.6034 67.579 53.6944L70.0918 54.9659C70.3037 55.0565 70.3946 55.329 70.2737 55.5712C70.1525 55.7831 69.9103 55.8744 69.6984 55.7831L67.1859 54.5119C66.9737 54.3906 66.8828 54.1181 67.004 53.9062Z" fill="#F3F3F3"/>
<path d="M66.9737 53.8759C67.095 53.6338 67.3675 53.5431 67.6097 53.6641L70.1222 54.9356C70.3644 55.0569 70.4553 55.3294 70.3341 55.5713C70.2131 55.8134 69.9403 55.9044 69.6984 55.7831L67.1859 54.5119C66.9434 54.4212 66.8528 54.1181 66.9737 53.8759ZM70.2434 55.5409C70.3341 55.3291 70.2734 55.0869 70.0616 54.9963L67.5491 53.7247C67.3672 53.6341 67.1253 53.7247 67.0041 53.9063C66.9134 54.1181 66.9737 54.3603 67.1856 54.4512L69.6981 55.7228C69.9103 55.8134 70.1525 55.7531 70.2434 55.5409Z" fill="white"/>
<path d="M62.5537 54.4815C62.7053 54.2697 62.9474 54.209 63.1593 54.3603L68.4268 57.8722C68.6387 57.9931 68.669 58.2659 68.5481 58.4775C68.3965 58.6897 68.1543 58.75 67.9424 58.5987L62.6749 55.0868C62.4631 54.9356 62.4024 54.6631 62.5537 54.4815Z" fill="#F3F3F3"/>
<path d="M62.5233 54.4512C62.6749 54.2393 62.9777 54.1787 63.1896 54.3L68.4571 57.8115C68.6689 57.9628 68.7296 58.2353 68.578 58.4775C68.4268 58.6897 68.1239 58.75 67.9124 58.629L62.6446 55.1172C62.4024 54.9659 62.3721 54.6631 62.5233 54.4512ZM68.4874 58.4472C68.6083 58.2659 68.578 57.9931 68.3968 57.8722L63.1289 54.3603C62.9474 54.2393 62.7052 54.3 62.5839 54.4815C62.463 54.6631 62.4933 54.9356 62.6746 55.0565L67.9424 58.5684C68.1239 58.6897 68.3661 58.629 68.4874 58.4475V58.4472Z" fill="white"/>
<path d="M63.6741 58.8713C63.8254 58.6894 64.0979 58.6291 64.2794 58.7806L66.4894 60.506C66.671 60.6572 66.7013 60.9297 66.5501 61.1116C66.3988 61.2928 66.1263 61.3538 65.9444 61.2022L63.7344 59.4766C63.5532 59.3253 63.5226 59.0528 63.6741 58.8713Z" fill="#F3F3F3"/>
<path d="M63.6437 58.8409C63.7949 58.629 64.0978 58.5987 64.3096 58.7503L66.5196 60.4756C66.7315 60.6268 66.7618 60.9296 66.6103 61.1415C66.459 61.3537 66.1562 61.3837 65.9446 61.2325L63.7343 59.5068C63.5224 59.3556 63.4924 59.0528 63.6437 58.8409ZM66.5499 61.1115C66.7012 60.9296 66.6709 60.6875 66.4893 60.5362L64.2793 58.8106C64.0978 58.6896 63.8556 58.72 63.7043 58.9012C63.5528 59.0831 63.5831 59.3253 63.7646 59.4765L65.9746 61.2021C66.1562 61.3234 66.3984 61.2928 66.5496 61.1115H66.5499Z" fill="white"/>
<path d="M59.163 58.5684C59.3449 58.3869 59.6174 58.3869 59.7686 58.5684L64.2489 63.0184C64.4308 63.2003 64.4005 63.4728 64.2489 63.624C64.0677 63.8056 63.7949 63.8056 63.6436 63.624L59.163 59.174C59.0117 59.0225 59.0117 58.7197 59.163 58.5684Z" fill="#F3F3F3"/>
<path d="M59.1631 58.5381C59.2519 58.4507 59.3715 58.4017 59.4962 58.4017C59.6208 58.4017 59.7405 58.4507 59.8293 58.5381L64.3096 62.9881C64.397 63.0769 64.446 63.1966 64.446 63.3212C64.446 63.4458 64.397 63.5655 64.3096 63.6543C64.2208 63.7416 64.1012 63.7906 63.9767 63.7906C63.8521 63.7906 63.7325 63.7416 63.6437 63.6543L59.1631 59.2043C58.9512 59.0224 58.9512 58.7199 59.1631 58.5381ZM64.249 63.5937C64.4006 63.4424 64.4006 63.1699 64.249 63.0187L59.7687 58.5684C59.6174 58.4171 59.3449 58.4171 59.1937 58.5684C59.0421 58.7196 59.0421 58.9921 59.1937 59.1434L63.674 63.5937C63.8253 63.7756 64.0678 63.7756 64.249 63.5937Z" fill="white"/>
<path d="M59.4355 63.079C59.6174 62.9278 59.8896 62.9278 60.0411 63.1093L61.888 65.2284C62.039 65.4103 62.009 65.6828 61.8271 65.834C61.6458 65.9853 61.373 65.9853 61.2218 65.8037L59.3749 63.6846C59.2236 63.5334 59.254 63.2609 59.4355 63.079Z" fill="#F3F3F3"/>
<path d="M59.4055 63.079C59.6174 62.8978 59.8899 62.9278 60.0712 63.1094L61.918 65.2284C62.0996 65.4103 62.0693 65.7128 61.8574 65.8947C61.6455 66.0762 61.373 66.0459 61.1915 65.8644L59.3446 63.7453C59.1934 63.5334 59.1934 63.2306 59.4052 63.079H59.4055ZM61.8274 65.8341C62.0087 65.6828 62.0087 65.4403 61.8877 65.2591L60.0409 63.1397C59.8896 62.9884 59.6474 62.9581 59.4659 63.1094C59.2843 63.2609 59.2843 63.5031 59.4052 63.6844L61.2521 65.8037C61.4034 65.9853 61.6459 65.9853 61.8271 65.8341H61.8274Z" fill="white"/>
<path d="M55.0762 61.9287C55.2881 61.7774 55.5606 61.8381 55.6818 62.0499L59.1931 67.2871C59.3143 67.499 59.2537 67.7715 59.0721 67.8928C58.8603 68.044 58.5878 67.9834 58.4665 67.7715L54.9549 62.534C54.8337 62.3224 54.8943 62.0496 55.0759 61.9287H55.0762Z" fill="#F3F3F3"/>
<path d="M55.0762 61.8984C55.2881 61.7472 55.5909 61.8078 55.7421 62.0197L59.254 67.2572C59.4053 67.4687 59.3446 67.7715 59.1028 67.9228C58.8906 68.0744 58.5881 68.0137 58.4365 67.8019L54.925 62.5644C54.7737 62.3225 54.8343 62.05 55.0762 61.8987V61.8984ZM59.0725 67.8625C59.254 67.7412 59.3146 67.4991 59.1934 67.3175L55.6818 62.08C55.5606 61.8987 55.3184 61.8681 55.1068 61.9894C54.925 62.1103 54.8643 62.3525 54.9856 62.5344L58.4971 67.7715C58.6184 67.9228 58.8909 67.9834 59.0721 67.8622L59.0725 67.8625Z" fill="white"/>
<path d="M54.4405 66.4091C54.6524 66.2881 54.9249 66.3487 55.0458 66.5606L56.4386 69.0128C56.5596 69.2247 56.4686 69.4972 56.2568 69.6181C56.0449 69.7394 55.7724 69.6787 55.6515 69.4669L54.259 67.0147C54.168 66.8028 54.2286 66.5303 54.4402 66.4094L54.4405 66.4091Z" fill="#F3F3F3"/>
<path d="M54.4407 66.3791C54.6829 66.2578 54.9554 66.3184 55.0763 66.5303L56.4688 68.9825C56.5901 69.1944 56.5294 69.4972 56.2876 69.6181C56.0451 69.7394 55.7726 69.6788 55.6516 69.4669L54.2591 67.0147C54.1379 66.8028 54.1985 66.5303 54.4404 66.3791H54.4407ZM56.2569 69.5881C56.4388 69.4669 56.5294 69.2247 56.4085 69.0431L55.016 66.5909C54.8948 66.4094 54.6526 66.3488 54.471 66.4394C54.2891 66.5606 54.1985 66.8028 54.3194 66.9844L55.7123 69.4366C55.8029 69.6181 56.0754 69.7091 56.2569 69.5878V69.5881Z" fill="white"/>
<path d="M50.4141 64.4113C50.6563 64.3206 50.8984 64.4113 50.9894 64.6231L53.4416 70.466C53.5322 70.6778 53.4113 70.9503 53.1994 71.041C52.9875 71.1319 52.715 71.041 52.6244 70.8291L50.1722 64.9866C50.0813 64.7744 50.2022 64.5022 50.4141 64.4113Z" fill="#F3F3F3"/>
<path d="M50.414 64.381C50.6561 64.2903 50.9286 64.381 51.0499 64.6231L53.5021 70.466C53.546 70.5824 53.5419 70.7114 53.4909 70.8249C53.4398 70.9383 53.3458 71.0269 53.2296 71.0713C52.9874 71.1622 52.7149 71.0713 52.594 70.8291L50.1418 64.9866C50.0508 64.7744 50.1721 64.5022 50.414 64.381ZM53.169 71.011C53.3808 70.92 53.4718 70.6778 53.3808 70.4963L50.9286 64.6535C50.838 64.4416 50.5958 64.3506 50.384 64.4416C50.1721 64.5322 50.0808 64.7744 50.1721 64.9563L52.624 70.7991C52.7452 71.0109 52.9571 71.1016 53.169 71.011Z" fill="white"/>
<path d="M48.9307 68.71C49.1732 68.6194 49.4151 68.7403 49.506 68.9825L50.3841 71.6466C50.4747 71.8584 50.3235 72.1309 50.1116 72.1916C49.8694 72.2822 49.6272 72.1612 49.5366 71.9191L48.6585 69.255C48.5679 69.0431 48.6888 68.8009 48.931 68.71H48.9307Z" fill="#F3F3F3"/>
<path d="M48.9005 68.6797C49.017 68.6358 49.146 68.6399 49.2595 68.6909C49.3729 68.742 49.4615 68.8359 49.5059 68.9522L50.384 71.6163C50.4746 71.8584 50.3234 72.1309 50.0809 72.2219C49.9644 72.2658 49.8354 72.2617 49.7219 72.2107C49.6085 72.1596 49.5199 72.0656 49.4755 71.9494L48.5977 69.2853C48.5371 69.0431 48.6584 68.7706 48.9005 68.6797ZM50.0812 72.1609C50.293 72.1006 50.414 71.8584 50.3537 71.6466L49.4755 68.9825C49.4152 68.7706 49.173 68.6797 48.9612 68.7403C48.749 68.8009 48.628 69.0431 48.6887 69.255L49.5665 71.9191C49.5819 71.9705 49.608 72.018 49.643 72.0587C49.6781 72.0993 49.7212 72.1321 49.7698 72.155C49.8183 72.1778 49.8712 72.1902 49.9248 72.1913C49.9785 72.1924 50.0317 72.1821 50.0812 72.1613V72.1609Z" fill="white"/>
<path d="M45.3587 65.9553C45.6006 65.8947 45.8431 66.0459 45.8731 66.2881L47.1447 72.4943C47.2053 72.7362 47.0234 72.9484 46.7812 73.0087C46.5394 73.0693 46.2969 72.9181 46.2669 72.6759L44.995 66.4697C44.965 66.2578 45.1162 66.0156 45.3584 65.955L45.3587 65.9553Z" fill="#F3F3F3"/>
<path d="M45.3588 65.9247C45.631 65.8644 45.8732 66.0459 45.9338 66.2881L47.2054 72.4944C47.266 72.7362 47.0841 73.0087 46.842 73.0391C46.5695 73.0997 46.3273 72.9181 46.267 72.6759L44.9951 66.4697C44.9348 66.2275 45.0863 65.9853 45.3585 65.925L45.3588 65.9247ZM46.7813 72.9784C46.9935 72.9484 47.1448 72.7362 47.1145 72.4941L45.8429 66.2881C45.8129 66.0762 45.5707 65.925 45.3585 65.9853C45.1466 66.0156 44.9954 66.2275 45.0257 66.4697L46.2973 72.6759C46.3576 72.8878 46.5695 73.0088 46.7816 72.9788L46.7813 72.9784Z" fill="white"/>
<path d="M43.0579 69.8906C43.3001 69.8603 43.5119 70.0119 43.5726 70.2541L43.9357 73.0391C43.966 73.2812 43.7844 73.4931 43.5419 73.5234C43.3001 73.5537 43.0882 73.4025 43.0276 73.1603L42.6644 70.375C42.6341 70.1328 42.8157 69.9209 43.0579 69.8906Z" fill="#F3F3F3"/>
<path d="M43.0577 69.8603C43.3302 69.8303 43.5723 70.0119 43.6027 70.2541L43.9658 73.0391C43.9961 73.2812 43.8145 73.5234 43.542 73.5537C43.2695 73.5841 43.0274 73.4025 42.997 73.16L42.6339 70.375C42.6036 70.1328 42.7852 69.8906 43.0577 69.8603ZM43.5117 73.4931C43.7236 73.4631 43.9055 73.2509 43.8752 73.0391L43.5117 70.2541C43.4814 70.0422 43.2695 69.8906 43.0577 69.9209C42.8458 69.9512 42.6639 70.1631 42.6942 70.375L43.0577 73.1603C43.088 73.3722 43.2999 73.5234 43.5117 73.4931Z" fill="white"/>
<path d="M39.9397 66.5C40.1818 66.5 40.3937 66.6819 40.3937 66.9241V73.2509C40.3937 73.4931 40.1818 73.675 39.9397 73.675C39.6975 73.675 39.4856 73.4931 39.4856 73.2509V66.9241C39.5159 66.6819 39.6975 66.5 39.9397 66.5Z" fill="#F3F3F3"/>
<path d="M39.9397 66.4697C40.2122 66.4697 40.4241 66.6815 40.4241 66.9237V73.2509C40.4241 73.4931 40.2122 73.705 39.9397 73.705C39.6672 73.705 39.4553 73.4931 39.4553 73.2509V66.924C39.4553 66.6819 39.6975 66.4697 39.9397 66.4697ZM39.9397 73.6447C40.1516 73.6447 40.3634 73.4631 40.3634 73.2509V66.924C40.3634 66.7119 40.1819 66.5303 39.9397 66.5303C39.7278 66.5303 39.5159 66.7119 39.5159 66.924V73.2509C39.5459 73.4631 39.7278 73.6447 39.9397 73.6447Z" fill="white"/>
<path d="M36.9121 69.8906C37.1543 69.9209 37.3358 70.1025 37.3358 70.3447L37.1239 73.1603C37.0939 73.4025 36.8818 73.5841 36.6396 73.5541C36.3974 73.5234 36.2158 73.3419 36.2158 73.0997L36.4277 70.2841C36.458 70.0422 36.6699 69.8603 36.9121 69.8906Z" fill="#F3F3F3"/>
<path d="M36.9121 69.8603C37.1846 69.8906 37.3662 70.1025 37.3662 70.3447L37.1543 73.1603C37.124 73.4025 36.9121 73.6143 36.6396 73.584C36.3674 73.5537 36.1855 73.3418 36.1855 73.0997L36.3974 70.284C36.4277 70.0119 36.6396 69.8303 36.9121 69.8603ZM36.6396 73.5234C36.8515 73.5234 37.0637 73.3722 37.0637 73.1603L37.2755 70.3447C37.2755 70.1328 37.124 69.9512 36.8818 69.9209C36.6699 69.9209 36.458 70.0722 36.458 70.2844L36.2462 73.0997C36.2462 73.3115 36.4277 73.4934 36.6399 73.5234H36.6396Z" fill="white"/>
<path d="M34.6419 65.9553C34.8841 66.0156 35.0353 66.2275 35.005 66.4697L33.7637 72.6759C33.7031 72.9181 33.4912 73.0697 33.2491 73.0087C33.0069 72.9484 32.8556 72.7365 32.8859 72.494L34.1272 66.2881C34.1575 66.0762 34.3997 65.925 34.6419 65.9553Z" fill="#F3F3F3"/>
<path d="M34.6419 65.9246C34.9141 65.9853 35.0657 66.2277 35.0354 66.4696L33.7941 72.6759C33.7335 72.9181 33.4913 73.0996 33.2191 73.039C32.9466 72.9784 32.795 72.7362 32.8254 72.494L34.0666 66.2881C34.1272 66.0459 34.3694 65.8943 34.6416 65.9249L34.6419 65.9246ZM33.2191 72.9784C33.431 73.0087 33.6429 72.8877 33.7035 72.6759L34.9444 66.4696C34.9747 66.2577 34.8538 66.0459 34.6116 65.9853C34.3997 65.9553 34.1879 66.0762 34.1272 66.2884L32.886 72.494C32.8557 72.7362 33.0069 72.9181 33.2191 72.9784Z" fill="white"/>
<path d="M31.0088 68.6796C31.2513 68.7403 31.4026 68.9825 31.342 69.2246L30.5851 71.9493C30.5248 72.1915 30.2826 72.3125 30.0404 72.2521C29.9827 72.2383 29.9283 72.2132 29.8803 72.1783C29.8324 72.1434 29.7918 72.0993 29.7608 72.0487C29.7299 71.9981 29.7092 71.9419 29.7 71.8833C29.6908 71.8247 29.6933 71.7648 29.7073 71.7071L30.4641 68.9825C30.5248 68.7403 30.767 68.6193 31.0091 68.6796H31.0088Z" fill="#F3F3F3"/>
<path d="M31.0087 68.6497C31.2512 68.71 31.4327 68.9825 31.3418 69.2247L30.5849 71.9494C30.5246 72.1915 30.2521 72.3431 30.0099 72.2822C29.7677 72.2219 29.5862 71.9494 29.6768 71.7072L30.4337 68.9825C30.4943 68.7403 30.7365 68.5887 31.0087 68.6494V68.6497ZM30.0099 72.1915C30.2218 72.2522 30.464 72.1309 30.5246 71.919L31.2812 69.1944C31.3418 68.9825 31.2209 68.7706 30.9787 68.71C30.7668 68.6494 30.5246 68.7706 30.464 68.9825L29.7071 71.7072C29.6768 71.919 29.7977 72.1309 30.0099 72.1915Z" fill="white"/>
<path d="M29.5255 64.4112C29.7677 64.5018 29.8583 64.7743 29.7677 64.9862L27.3458 70.829C27.2552 71.0412 26.9824 71.1621 26.7708 71.0412C26.5587 70.92 26.4374 70.6778 26.5284 70.4659L28.9502 64.6231C29.0409 64.4112 29.3137 64.29 29.5252 64.4112H29.5255Z" fill="#F3F3F3"/>
<path d="M29.5255 64.3809C29.6419 64.4253 29.7359 64.5139 29.7869 64.6274C29.838 64.741 29.842 64.8701 29.798 64.9866L27.3762 70.8291C27.2852 71.0712 27.0127 71.1622 26.7402 71.0712C26.624 71.0269 26.53 70.9383 26.479 70.8249C26.4279 70.7114 26.4238 70.5824 26.4677 70.4659L28.8896 64.6231C29.0108 64.3809 29.2833 64.26 29.5255 64.3809ZM26.7705 71.0109C26.9824 71.1016 27.2246 71.0109 27.3155 70.7991L29.7374 64.9562C29.828 64.7444 29.7071 64.5322 29.4952 64.4416C29.2833 64.3509 29.0412 64.4416 28.9502 64.6534L26.5283 70.4962C26.4677 70.6778 26.5587 70.92 26.7705 71.0109Z" fill="white"/>
<path d="M25.4388 66.3487C25.6507 66.4697 25.7413 66.7119 25.6507 66.9237L24.3791 69.4366C24.2578 69.6484 24.0157 69.7394 23.7735 69.6181C23.5616 69.4972 23.471 69.255 23.5616 69.0431L24.8335 66.5306C24.9544 66.3184 25.1966 66.2275 25.4388 66.3487Z" fill="#F3F3F3"/>
<path d="M25.4387 66.3184C25.6809 66.4393 25.7715 66.7122 25.6506 66.954L24.379 69.4668C24.2578 69.709 23.9853 69.8 23.7434 69.6787C23.5012 69.5578 23.4103 69.285 23.5315 69.0431L24.8028 66.5306C24.924 66.2881 25.1965 66.1975 25.4387 66.3184ZM23.7737 69.6184C23.9856 69.709 24.2278 69.6484 24.3184 69.4365L25.5899 66.924C25.6806 66.7422 25.5899 66.5 25.4084 66.379C25.1965 66.2884 24.9543 66.3487 24.8634 66.5606L23.5918 69.0731C23.5012 69.255 23.5918 69.4972 23.7737 69.6181V69.6184Z" fill="white"/>
<path d="M24.833 61.8684C25.0449 62.0197 25.1055 62.2922 24.9542 62.4737L21.4424 67.7112C21.3214 67.9228 21.0486 67.9531 20.8371 67.8322C20.6252 67.6806 20.5646 67.4084 20.7158 67.2265L24.2277 61.989C24.3486 61.7775 24.6211 61.7169 24.833 61.8681V61.8684Z" fill="#F3F3F3"/>
<path d="M24.8331 61.8378C25.045 61.9894 25.1056 62.2922 24.9844 62.5041L21.4728 67.7416C21.3216 67.9531 21.0491 68.0137 20.8069 67.8625C20.595 67.7109 20.5344 67.4084 20.6553 67.1962L24.1672 61.9591C24.3185 61.7472 24.6213 61.6866 24.8331 61.8378ZM20.8372 67.8019C21.0185 67.9228 21.2913 67.8925 21.4122 67.7112L24.9241 62.4738C25.045 62.2922 24.9847 62.05 24.8028 61.9288C24.6213 61.8078 24.3488 61.8381 24.2278 62.0194L20.716 67.2266C20.595 67.4084 20.6553 67.6806 20.8372 67.8016V67.8019Z" fill="white"/>
<path d="M20.4132 62.9884C20.595 63.1397 20.6554 63.4122 20.5041 63.5938L18.7482 65.8038C18.5969 65.9853 18.3244 66.0156 18.1429 65.8644C17.9613 65.7131 17.9007 65.4406 18.0522 65.2588L19.8079 63.0488C19.9591 62.8675 20.2316 62.8369 20.4132 62.9884Z" fill="#F3F3F3"/>
<path d="M20.4433 62.9581C20.6552 63.1093 20.6855 63.4122 20.5339 63.624L18.7783 65.834C18.6271 66.0459 18.3243 66.0762 18.1124 65.8947C17.9005 65.7431 17.8702 65.4406 18.0218 65.2284L19.7774 63.0187C19.9286 62.8065 20.2314 62.7765 20.4433 62.9581ZM18.173 65.834C18.3543 65.9853 18.5968 65.9553 18.748 65.7734L20.5039 63.5634C20.6252 63.3822 20.5946 63.1397 20.4133 62.9884C20.2314 62.8368 19.9893 62.8672 19.838 63.049L18.0821 65.2587C17.9611 65.4406 17.9914 65.7128 18.1727 65.834H18.173Z" fill="white"/>
<path d="M20.7159 58.4475C20.8974 58.6288 20.8974 58.9016 20.7159 59.0528L16.2356 63.5028C16.0537 63.6847 15.7815 63.6544 15.6299 63.5028C15.4787 63.3516 15.4484 63.0488 15.6299 62.8975L20.0799 58.4475C20.2618 58.2656 20.5343 58.2656 20.7159 58.4475Z" fill="#F3F3F3"/>
<path d="M20.7463 58.4172C20.8335 58.506 20.8824 58.6255 20.8824 58.75C20.8824 58.8745 20.8335 58.994 20.7463 59.0828L16.2656 63.5334C16.1768 63.6207 16.0573 63.6695 15.9328 63.6695C15.8083 63.6695 15.6888 63.6207 15.6 63.5334C15.5126 63.4446 15.4636 63.3249 15.4636 63.2003C15.4636 63.0757 15.5126 62.956 15.6 62.8672L20.0803 58.4172C20.1692 58.3299 20.2887 58.2809 20.4133 58.2809C20.5379 58.2809 20.6574 58.3299 20.7463 58.4172ZM15.63 63.5028C15.7813 63.6541 16.0538 63.6541 16.205 63.5028L20.6856 59.0525C20.8372 58.9012 20.8372 58.6287 20.6856 58.4775C20.5344 58.3259 20.2619 58.3259 20.1106 58.4775L15.63 62.9275C15.4788 63.0787 15.4788 63.3212 15.63 63.5025V63.5028Z" fill="white"/>
<path d="M16.175 58.6896C16.3263 58.8709 16.3263 59.1437 16.1447 59.295L13.9953 61.1115C13.8138 61.2628 13.5413 61.2325 13.3897 61.0509C13.2384 60.869 13.2384 60.5968 13.42 60.4453L15.5694 58.629C15.7513 58.4775 16.0234 58.5078 16.175 58.6896Z" fill="#F3F3F3"/>
<path d="M16.2054 58.6591C16.387 58.8712 16.3566 59.1737 16.1751 59.3253L14.0257 61.1416C13.8441 61.3234 13.5413 61.2931 13.3598 61.0812C13.1779 60.8691 13.2082 60.5666 13.3898 60.415L15.5395 58.5987C15.7207 58.4172 16.0238 58.4475 16.2051 58.6594L16.2054 58.6591ZM13.4201 61.0509C13.5716 61.2325 13.8138 61.2325 13.9951 61.1116L16.1448 59.295C16.296 59.1437 16.3263 58.9012 16.1751 58.72C16.0235 58.5381 15.7813 58.5381 15.6001 58.6594L13.4504 60.4756C13.2688 60.6269 13.2688 60.8694 13.4201 61.0506V61.0509Z" fill="white"/>
<path d="M17.3859 54.33C17.5371 54.5421 17.4765 54.8143 17.2646 54.9356L11.9971 58.4475C11.7853 58.5684 11.5128 58.5078 11.3918 58.3262C11.2403 58.1143 11.3009 57.8418 11.5128 57.7206L16.7806 54.209C16.9624 54.0881 17.2346 54.1484 17.3862 54.33H17.3859Z" fill="#F3F3F3"/>
<path d="M17.4162 54.33C17.5674 54.5422 17.5068 54.8447 17.2949 54.9962L12.0274 58.5078C11.8155 58.6594 11.5127 58.5984 11.3615 58.3566C11.2099 58.1447 11.2708 57.8419 11.4824 57.6906L16.7502 54.1787C16.9621 54.0275 17.2646 54.0881 17.4158 54.33H17.4162ZM11.4221 58.2959C11.543 58.4775 11.7852 58.5381 11.9668 58.4172L17.2343 54.9053C17.4162 54.7844 17.4765 54.5422 17.3252 54.3303C17.2043 54.1484 16.9621 54.0881 16.7802 54.2091L11.5127 57.7209C11.3312 57.8722 11.3008 58.1144 11.4221 58.2959Z" fill="white"/>
<path d="M12.8751 53.6944C12.9963 53.9063 12.9357 54.1788 12.7238 54.3L10.2716 55.6925C10.0597 55.8134 9.78724 55.7228 9.6663 55.5109C9.54505 55.2991 9.60568 55.0266 9.81755 54.9053L12.2697 53.5128C12.4816 53.3916 12.7541 53.4825 12.8754 53.6944H12.8751Z" fill="#F3F3F3"/>
<path d="M12.9057 53.664C13.0266 53.9062 12.966 54.1787 12.7541 54.3L10.3019 55.6925C10.0901 55.8134 9.78724 55.7228 9.6663 55.5109C9.54505 55.2687 9.60568 54.9962 9.81755 54.875L12.2697 53.4825C12.4816 53.3612 12.7844 53.4522 12.9054 53.664H12.9057ZM9.6963 55.4806C9.81755 55.6925 10.0597 55.7531 10.2413 55.6319L12.6935 54.2394C12.8751 54.1181 12.9357 53.8759 12.8451 53.6944C12.7238 53.4825 12.4816 53.4219 12.3001 53.5431L9.84786 54.9356C9.6663 55.0262 9.60568 55.2687 9.69661 55.4806H9.6963Z" fill="white"/>
<path d="M14.9033 49.6681C14.994 49.9103 14.9033 50.1524 14.6611 50.2431L8.81834 52.6649C8.60646 52.7559 8.33396 52.6349 8.24334 52.4228C8.1524 52.1806 8.24334 51.9384 8.48552 51.8478L14.3283 49.4259C14.5402 49.3353 14.8127 49.4259 14.9033 49.6681Z" fill="#F3F3F3"/>
<path d="M14.9336 49.6378C15.0243 49.88 14.9336 50.1525 14.6915 50.2734L8.84865 52.6953C8.73223 52.7392 8.60316 52.7351 8.48971 52.6841C8.37626 52.633 8.28767 52.5391 8.24334 52.4228C8.1524 52.1806 8.24334 51.9081 8.48552 51.7872L14.3283 49.3653C14.4448 49.3214 14.5738 49.3255 14.6873 49.3765C14.8007 49.4276 14.8893 49.5216 14.9336 49.6378ZM8.30365 52.3925C8.39459 52.6047 8.63677 52.6956 8.81834 52.6347L14.6611 50.2128C14.873 50.1222 14.964 49.88 14.873 49.6681C14.7824 49.4562 14.5402 49.3653 14.3583 49.4259L8.51552 51.8478C8.30365 51.9384 8.21302 52.1806 8.30365 52.3928V52.3925Z" fill="white"/>
<path d="M10.6349 48.1544C10.7255 48.3966 10.6046 48.6388 10.3624 48.7294L7.69836 49.6075C7.48649 49.6981 7.21399 49.5469 7.15336 49.335C7.06274 49.0928 7.18367 48.8506 7.42586 48.76L10.0899 47.8819C10.3018 47.7913 10.544 47.9122 10.6349 48.1544Z" fill="#F3F3F3"/>
<path d="M10.6649 48.1241C10.7558 48.3662 10.6349 48.6387 10.3624 48.7297L7.69834 49.6075C7.45616 49.6981 7.18366 49.5469 7.09272 49.3047C7.00209 49.0625 7.12303 48.79 7.39584 48.6994L10.0596 47.8212C10.3018 47.7609 10.5743 47.8819 10.6652 48.1244L10.6649 48.1241ZM7.15366 49.2747C7.21428 49.4866 7.45647 49.6078 7.66834 49.5472L10.3324 48.6691C10.5443 48.6087 10.6352 48.3666 10.5746 48.1547C10.514 47.9428 10.2718 47.8216 10.0599 47.8822L7.39584 48.7603C7.18397 48.8509 7.09303 49.0628 7.15366 49.2747Z" fill="white"/>
<path d="M13.3596 44.5518C13.4199 44.794 13.2687 45.0362 13.0265 45.0665L6.82024 46.2775C6.57806 46.3381 6.36618 46.1562 6.30587 45.914C6.24524 45.6718 6.39649 45.4297 6.63868 45.3993L12.8449 44.1884C13.0871 44.1584 13.3293 44.3097 13.3593 44.5518H13.3596Z" fill="#F3F3F3"/>
<path d="M13.42 44.5519C13.4806 44.8244 13.2991 45.0666 13.0569 45.1269L6.85064 46.3378C6.60845 46.3984 6.36627 46.2169 6.30595 45.9444C6.24533 45.6719 6.42689 45.4297 6.66908 45.3694L12.8753 44.1584C13.1172 44.0978 13.3597 44.2794 13.42 44.5519ZM6.36627 45.9144C6.39658 46.1259 6.60845 46.2775 6.82033 46.2472L13.0266 45.0362C13.2385 45.0059 13.3897 44.7637 13.3294 44.5519C13.2991 44.34 13.0872 44.1884 12.875 44.2187L6.66908 45.4297C6.4572 45.4903 6.30595 45.7022 6.36627 45.9141V45.9144Z" fill="white"/>
<path d="M9.48456 42.2209C9.51456 42.4628 9.36331 42.675 9.12113 42.7053L6.33613 43.0381C6.09363 43.0684 5.88175 42.8869 5.85175 42.6444C5.82144 42.4025 5.97269 42.1906 6.21488 42.16L9.00019 41.8272C9.21206 41.7968 9.45425 41.9784 9.48456 42.2209Z" fill="#F3F3F3"/>
<path d="M9.51486 42.2209C9.54486 42.4931 9.3633 42.7353 9.12111 42.7656L6.33611 43.0988C6.09361 43.1291 5.85174 42.9475 5.82143 42.675C5.79111 42.4025 5.97268 42.1603 6.21486 42.13L9.00017 41.7969C9.24205 41.7666 9.48455 41.9484 9.51455 42.2206L9.51486 42.2209ZM5.85143 42.6447C5.88174 42.8566 6.09393 43.0384 6.3058 43.0078L9.0908 42.675C9.30268 42.6447 9.45424 42.4328 9.42392 42.2209C9.39361 42.0087 9.18174 41.8272 8.96986 41.8575L6.18455 42.1906C5.97268 42.2209 5.82143 42.4328 5.85143 42.6447Z" fill="white"/>
<path d="M12.8751 39.2841C12.8751 39.5266 12.6938 39.7385 12.4513 39.7385H6.12443C5.88225 39.7385 5.70068 39.5266 5.70068 39.2844C5.70068 39.0422 5.88225 38.83 6.12443 38.83H12.4516C12.6938 38.83 12.8757 39.0422 12.8757 39.2844L12.8751 39.2841Z" fill="#F3F3F3"/>
<path d="M12.9057 39.2841C12.9057 39.5569 12.6935 39.7684 12.4513 39.7684H6.12447C5.88229 39.7684 5.67041 39.5566 5.67041 39.2841C5.67041 39.0119 5.88229 38.7997 6.12447 38.7997H12.4517C12.6938 38.7997 12.9057 39.0119 12.9057 39.2841ZM5.73072 39.2541C5.73072 39.4659 5.91229 39.6778 6.12447 39.6778H12.4513C12.6632 39.6778 12.8451 39.4962 12.8451 39.2541C12.8451 39.0422 12.6632 38.83 12.4513 38.83H6.12447C5.9126 38.8603 5.73104 39.0422 5.73104 39.2541H5.73072Z" fill="white"/>
<path d="M9.51507 36.2265C9.48445 36.4687 9.30289 36.6503 9.0607 36.6503L6.24507 36.4384C6.0032 36.4081 5.82164 36.1962 5.85164 35.954C5.88195 35.7118 6.06382 35.5303 6.30601 35.5303L9.12132 35.7421C9.3332 35.7725 9.51507 35.9843 9.51507 36.2265Z" fill="#E2E2E2"/>
<path d="M9.54494 36.2266C9.51463 36.4991 9.30275 36.6806 9.06056 36.6806L6.24494 36.4688C6.00307 36.4384 5.79119 36.2266 5.8215 35.9541C5.8515 35.6819 6.06369 35.5 6.30588 35.5L9.12119 35.7119C9.36338 35.7422 9.54494 35.9844 9.54494 36.2266ZM5.8515 35.9541C5.8215 36.1659 6.00307 36.3781 6.21494 36.3781L9.03057 36.59C9.24213 36.59 9.424 36.4384 9.45432 36.1963C9.48463 35.9844 9.30275 35.7725 9.09088 35.7725L6.27525 35.5606C6.06369 35.5606 5.88182 35.7422 5.8515 35.9544V35.9541Z" fill="white"/>
<path d="M13.4199 34.0165C13.3593 34.2587 13.1474 34.4103 12.9052 34.38L6.69928 33.1084C6.45709 33.0478 6.30553 32.8359 6.36615 32.5937C6.42678 32.3515 6.63865 32.2 6.88084 32.2306L13.0871 33.4719C13.299 33.5322 13.4502 33.7744 13.4199 34.0165Z" fill="#F3F3F3"/>
<path d="M13.4503 34.0166C13.3897 34.2891 13.1475 34.4406 12.9053 34.4103L6.69935 33.1691C6.45717 33.1084 6.2756 32.8662 6.33623 32.5941C6.39654 32.3212 6.63873 32.17 6.88092 32.2003L13.0872 33.4416C13.3294 33.5022 13.4806 33.7444 13.4503 34.0166ZM6.39654 32.5937C6.36623 32.8056 6.48717 33.0175 6.69935 33.0781L12.9056 34.3194C13.1175 34.3497 13.3294 34.2287 13.39 33.9862C13.42 33.7744 13.299 33.5625 13.0869 33.5019L6.88123 32.2609C6.63904 32.2306 6.45748 32.3819 6.39685 32.5937H6.39654Z" fill="white"/>
<path d="M10.6955 30.384C10.6816 30.4417 10.6565 30.4961 10.6216 30.544C10.5866 30.5919 10.5426 30.6325 10.492 30.6634C10.4414 30.6943 10.3852 30.715 10.3266 30.7241C10.268 30.7333 10.2081 30.7308 10.1505 30.7169L7.42582 29.96C7.18363 29.8993 7.06269 29.6572 7.12301 29.415C7.1369 29.3573 7.16203 29.303 7.19695 29.255C7.23187 29.2071 7.2759 29.1665 7.32651 29.1356C7.37713 29.1047 7.43335 29.084 7.49194 29.0749C7.55054 29.0657 7.61037 29.0682 7.66801 29.0822L10.3927 29.839C10.6349 29.8993 10.7558 30.1415 10.6955 30.3837V30.384Z" fill="#F3F3F3"/>
<path d="M10.7255 30.3841C10.6652 30.6259 10.3927 30.8078 10.1505 30.7169L7.42584 29.96C7.18365 29.8994 7.03209 29.6269 7.09271 29.385C7.15334 29.1425 7.42584 28.9609 7.66803 29.0519L10.3927 29.8087C10.6349 29.8694 10.7865 30.1116 10.7255 30.3837V30.3841ZM7.18365 29.3844C7.12303 29.5966 7.24428 29.8387 7.45615 29.8991L10.1808 30.6559C10.3927 30.7166 10.6046 30.5953 10.6652 30.3531C10.7255 30.1412 10.6046 29.8991 10.3927 29.8387L7.66803 29.0819C7.45615 29.0516 7.24428 29.1725 7.18365 29.3847V29.3844Z" fill="white"/>
<path d="M14.9639 28.9309C14.8733 29.1728 14.6005 29.2637 14.3889 29.1728L8.54581 26.7509C8.33393 26.6603 8.21299 26.3878 8.30362 26.1759C8.39456 25.9337 8.66706 25.8428 8.87893 25.9337L14.7217 28.3556C14.9639 28.4462 15.0549 28.7187 14.9639 28.9306V28.9309Z" fill="#F3F3F3"/>
<path d="M14.9944 28.9609C14.95 29.0773 14.8614 29.1713 14.7479 29.2223C14.6344 29.2734 14.5052 29.2774 14.3888 29.2334L8.54594 26.8116C8.30375 26.7209 8.21313 26.4484 8.30375 26.1759C8.34808 26.0596 8.43672 25.9656 8.55025 25.9145C8.66377 25.8634 8.79292 25.8595 8.90938 25.9034L14.7522 28.3253C14.9944 28.4462 15.085 28.7191 14.9944 28.9609ZM8.36438 26.2062C8.27375 26.4181 8.36438 26.6603 8.57625 26.7509L14.4191 29.1728C14.6309 29.2638 14.8428 29.1425 14.9338 28.9306C15.0244 28.7187 14.9338 28.4766 14.7219 28.3859L8.87906 25.9641C8.66719 25.9034 8.425 25.9944 8.36438 26.2062Z" fill="white"/>
<path d="M12.9963 24.8438C12.8754 25.0556 12.6332 25.1466 12.4213 25.0556L9.90849 23.7844C9.69661 23.6934 9.60567 23.4209 9.72692 23.1788C9.84786 22.9669 10.09 22.8759 10.3019 22.9669L12.8144 24.2384C13.0266 24.3594 13.1175 24.6322 12.9963 24.8438Z" fill="#F3F3F3"/>
<path d="M13.0266 24.8741C12.9053 25.1162 12.6328 25.2072 12.3906 25.0859L9.87815 23.8144C9.63596 23.6934 9.54502 23.4209 9.66627 23.1787C9.78721 22.9366 10.06 22.8456 10.3019 22.9669L12.8144 24.2384C13.0569 24.3291 13.1475 24.6322 13.0266 24.8741ZM9.7569 23.2091C9.66627 23.4209 9.7269 23.6631 9.93877 23.7541L12.4513 25.0256C12.6331 25.1162 12.8753 25.0256 12.9963 24.8437C13.0869 24.6319 13.0266 24.3897 12.8147 24.2987L10.2713 23.0278C10.0897 22.9372 9.84752 22.9975 9.75659 23.2094L9.7569 23.2091Z" fill="white"/>
<path d="M17.4463 24.2684C17.2951 24.4806 17.0529 24.5412 16.841 24.3896L11.6035 20.9084C11.392 20.7871 11.3616 20.5146 11.4826 20.3028C11.6038 20.0909 11.8763 20.0303 12.0882 20.1815L17.3557 23.6934C17.5373 23.8146 17.5979 24.0871 17.4463 24.2684Z" fill="#F3F3F3"/>
<path d="M17.4765 24.2987C17.3253 24.5109 17.0224 24.5712 16.8109 24.4503L11.5734 20.9384C11.3615 20.7872 11.3009 20.5147 11.4521 20.2728C11.6037 20.0606 11.9065 20 12.1184 20.1212L17.3556 23.6328C17.5978 23.7844 17.6281 24.0869 17.4765 24.2987ZM11.5128 20.3028C11.3918 20.4844 11.4221 20.7569 11.6034 20.8778L16.8712 24.39C17.0528 24.5112 17.2949 24.4506 17.4162 24.2691C17.5371 24.0872 17.5068 23.8147 17.3256 23.6937L12.0574 20.1819C11.8759 20.0606 11.6337 20.1212 11.5124 20.3028H11.5128Z" fill="white"/>
<path d="M16.3263 19.8791C16.175 20.0606 15.9025 20.1213 15.721 19.9697L13.511 18.2444C13.3294 18.0928 13.2991 17.8203 13.4503 17.6388C13.6016 17.4572 13.8741 17.3966 14.056 17.5481L16.2656 19.2734C16.4475 19.425 16.4778 19.6972 16.3263 19.8791Z" fill="#F3F3F3"/>
<path d="M16.3565 19.9091C16.2052 20.1213 15.9024 20.1516 15.6905 20L13.4805 18.2747C13.2687 18.1234 13.2384 17.8206 13.3899 17.6091C13.5412 17.3969 13.844 17.3666 14.0555 17.5181L16.2655 19.2434C16.4777 19.395 16.508 19.6975 16.3565 19.9097V19.9091ZM13.4502 17.6388C13.299 17.8203 13.3293 18.0625 13.5109 18.2138L15.7209 19.9397C15.9024 20.0606 16.1446 20.0303 16.2959 19.8488C16.4474 19.6672 16.4171 19.425 16.2355 19.2738L14.0255 17.5478C13.844 17.4269 13.6015 17.4572 13.4505 17.6388H13.4502Z" fill="white"/>
<path d="M20.8367 20.1816C20.6555 20.3634 20.3827 20.3634 20.2314 20.1816L15.7211 15.7316C15.5396 15.55 15.5696 15.2775 15.7211 15.1259C15.9027 14.9447 16.1752 14.9447 16.3264 15.1259L20.8071 19.5762C20.9886 19.7275 20.9886 20.0303 20.8374 20.1819L20.8367 20.1816Z" fill="#F3F3F3"/>
<path d="M20.8369 20.2122C20.7481 20.2994 20.6286 20.3483 20.5041 20.3483C20.3796 20.3483 20.2601 20.2994 20.1713 20.2122L15.6904 15.7615C15.6029 15.6727 15.554 15.553 15.554 15.4284C15.554 15.3038 15.6029 15.1841 15.6904 15.0953C15.7792 15.008 15.8988 14.959 16.0233 14.959C16.1479 14.959 16.2675 15.008 16.3563 15.0953L20.8369 19.5456C21.0488 19.7272 21.0488 20.03 20.8369 20.2115V20.2122ZM15.7516 15.1559C15.6 15.3075 15.6 15.58 15.7516 15.7309L20.2319 20.1812C20.3835 20.3328 20.6557 20.3328 20.8069 20.1812C20.9585 20.03 20.9585 19.7575 20.8069 19.6062L16.3266 15.1259C16.1754 14.9747 15.9329 14.9747 15.7516 15.1562V15.1559Z" fill="white"/>
<path d="M20.5645 15.6709C20.383 15.8225 20.1105 15.8225 19.9589 15.6406L18.112 13.5215C17.9611 13.34 17.9911 13.0675 18.173 12.9162C18.3542 12.7646 18.627 12.7646 18.7783 12.9462L20.6252 15.0656C20.7764 15.2168 20.7461 15.4893 20.5645 15.6709Z" fill="#F3F3F3"/>
<path d="M20.5949 15.6709C20.383 15.8525 20.1105 15.8225 19.9286 15.6406L18.0821 13.5215C17.9005 13.34 17.9308 13.0372 18.1427 12.8556C18.3546 12.6737 18.6271 12.704 18.8086 12.8859L20.6555 15.0047C20.8068 15.2168 20.8068 15.5197 20.5949 15.6709ZM18.173 12.9162C17.9911 13.0675 17.9911 13.3097 18.1124 13.4912L19.9593 15.6103C20.1105 15.7618 20.3527 15.7922 20.5343 15.6406C20.7158 15.4893 20.7158 15.2468 20.5949 15.0656L18.748 12.9462C18.5968 12.765 18.3543 12.765 18.173 12.9162Z" fill="white"/>
<path d="M24.924 16.8215C24.7121 16.9728 24.4396 16.9122 24.3183 16.7003L20.7765 11.4628C20.6552 11.2509 20.7158 10.9784 20.8974 10.8575C21.1093 10.7062 21.3818 10.7668 21.503 10.9787L25.0146 16.2159C25.1662 16.4278 25.1055 16.7003 24.924 16.8212V16.8215Z" fill="#F3F3F3"/>
<path d="M24.9241 16.8516C24.7122 17.0031 24.4094 16.9422 24.2578 16.7306L20.7462 11.4931C20.595 11.2812 20.6556 10.9787 20.8975 10.8275C21.1094 10.6759 21.4122 10.7366 21.5637 10.9484L25.0753 16.1856C25.2266 16.4278 25.1659 16.7003 24.9241 16.8516ZM20.9275 10.8878C20.7459 11.0087 20.6853 11.2509 20.8066 11.4328L24.3181 16.67C24.4394 16.8516 24.6816 16.8819 24.8931 16.7606C25.075 16.6397 25.1356 16.3975 25.0144 16.2159L21.5031 11.0087C21.3819 10.8275 21.1094 10.7666 20.9281 10.8878H20.9275Z" fill="white"/>
<path d="M25.5596 12.3409C25.3477 12.4618 25.0752 12.4015 24.9543 12.1897L23.5615 9.73747C23.4406 9.5256 23.5312 9.2531 23.7434 9.13185C23.9552 9.01091 24.2277 9.07122 24.3487 9.28341L25.7412 11.7353C25.8321 11.9472 25.7715 12.2197 25.5599 12.3409H25.5596Z" fill="#F3F3F3"/>
<path d="M25.5596 12.3712C25.3174 12.4922 25.0449 12.4319 24.9239 12.2197L23.5311 9.76779C23.4102 9.5556 23.4708 9.2531 23.713 9.13185C23.9552 9.01091 24.2277 9.07122 24.3486 9.28341L25.7411 11.7353C25.8624 11.9472 25.8017 12.2197 25.5599 12.3712H25.5596ZM23.7433 9.16216C23.5614 9.2831 23.4708 9.52529 23.5917 9.70716L24.9846 12.1593C25.1055 12.3406 25.3477 12.4015 25.5292 12.3106C25.7111 12.1897 25.8017 11.9472 25.6808 11.7656L24.288 9.31341C24.1974 9.13216 23.9249 9.04091 23.7433 9.16216Z" fill="white"/>
<path d="M29.5859 14.3391C29.3441 14.4297 29.1016 14.3391 29.0109 14.1272L26.5587 8.28406C26.4681 8.07219 26.5891 7.79969 26.8009 7.70875C27.0431 7.61813 27.2853 7.70875 27.3759 7.92063L29.8281 13.7634C29.9191 13.9753 29.7981 14.2478 29.5859 14.3384V14.3391Z" fill="#F3F3F3"/>
<path d="M29.5859 14.3694C29.344 14.46 29.0715 14.3694 28.9503 14.1269L26.4981 8.28438C26.4541 8.16792 26.4581 8.03877 26.5092 7.92525C26.5603 7.81172 26.6543 7.72308 26.7706 7.67875C27.0128 7.58813 27.2853 7.67875 27.4065 7.92094L29.8584 13.7638C29.9493 13.9756 29.8284 14.2481 29.5862 14.3694H29.5859ZM26.8312 7.73938C26.6193 7.83 26.5284 8.0725 26.6193 8.25406L29.0712 14.0966C29.1618 14.3084 29.404 14.3991 29.6159 14.3084C29.8278 14.2178 29.919 13.9753 29.8278 13.7938L27.3759 7.95094C27.2547 7.73906 27.0428 7.64813 26.8309 7.73906L26.8312 7.73938Z" fill="white"/>
<path d="M31.0693 10.0403C30.8271 10.1309 30.5849 10.0097 30.4943 9.76778L29.6162 7.10341C29.5255 6.89153 29.6768 6.61903 29.8887 6.55872C30.1005 6.49809 30.373 6.58903 30.4637 6.83122L31.3418 9.49528C31.4324 9.70716 31.3115 9.94934 31.0693 10.04V10.0403Z" fill="#F3F3F3"/>
<path d="M31.0996 10.0703C30.9832 10.1141 30.8541 10.1101 30.7407 10.059C30.6272 10.008 30.5386 9.91401 30.4943 9.79777L29.6162 7.1337C29.5255 6.89152 29.6768 6.61933 29.9193 6.52839C30.0357 6.48451 30.1648 6.48855 30.2782 6.53962C30.3917 6.5907 30.4803 6.68464 30.5246 6.80089L31.4024 9.46495C31.463 9.70714 31.3418 9.97964 31.0996 10.0703ZM29.919 6.58902C29.7071 6.64933 29.5858 6.89152 29.6465 7.10339L30.5246 9.76777C30.5849 9.97964 30.8271 10.0703 31.0393 10.0096C31.2512 9.94933 31.3721 9.70714 31.3115 9.49527L30.4337 6.83089C30.4182 6.7795 30.3921 6.73193 30.3571 6.69129C30.3221 6.65064 30.2789 6.61783 30.2303 6.59498C30.1818 6.57214 30.129 6.55977 30.0753 6.55869C30.0217 6.55761 29.9684 6.56783 29.919 6.5887V6.58902Z" fill="white"/>
<path d="M34.6418 12.7949C34.3996 12.8555 34.1574 12.7043 34.1271 12.4618L32.8555 6.25586C32.7949 6.01367 32.9768 5.8018 33.2186 5.74117C33.4611 5.68055 33.703 5.8318 33.7333 6.0743L35.0052 12.2805C35.0352 12.4921 34.8839 12.7343 34.6418 12.7949Z" fill="#F3F3F3"/>
<path d="M34.6418 12.8253C34.3693 12.8859 34.1271 12.704 34.0665 12.4618L32.795 6.25591C32.7343 6.01372 32.9162 5.74122 33.1584 5.71091C33.4309 5.65028 33.6731 5.83216 33.7334 6.07435L35.0053 12.2806C35.0656 12.5225 34.9143 12.765 34.6418 12.8253ZM33.219 5.77153C33.0068 5.80185 32.8556 6.01372 32.8859 6.25591L34.1575 12.4622C34.1878 12.6737 34.4296 12.8253 34.6418 12.7647C34.8537 12.7343 35.005 12.5225 34.9746 12.2803L33.7031 6.07403C33.6428 5.86247 33.4309 5.74122 33.2187 5.77153H33.219Z" fill="white"/>
<path d="M36.9424 8.85937C36.7002 8.88969 36.4883 8.73844 36.4277 8.49625L36.0646 5.71094C36.0343 5.46875 36.2158 5.25687 36.4583 5.22656C36.7002 5.19625 36.9121 5.34781 36.9727 5.59L37.3358 8.375C37.3661 8.61719 37.1846 8.82906 36.9424 8.85937Z" fill="#F3F3F3"/>
<path d="M36.9424 8.88968C36.6699 8.91999 36.4277 8.73843 36.3974 8.49593L36.0343 5.71093C36.004 5.46874 36.1856 5.22655 36.4581 5.19624C36.7305 5.16624 36.9727 5.3478 37.003 5.58999L37.3662 8.37499C37.3965 8.61718 37.2149 8.85937 36.9424 8.88968ZM36.4884 5.25686C36.2765 5.28718 36.0946 5.49905 36.1249 5.71093L36.4884 8.49624C36.5187 8.70812 36.7306 8.85937 36.9424 8.82905C37.1543 8.79905 37.3362 8.58687 37.3059 8.37499L36.9424 5.58999C36.9121 5.37811 36.7002 5.22655 36.4884 5.25686Z" fill="white"/>
<path d="M40.2122 75.1884C60.0081 75.1884 76.0559 59.1406 76.0559 39.3447C76.0559 19.5487 60.0081 3.50092 40.2122 3.50092C20.4162 3.50092 4.36841 19.5487 4.36841 39.3447C4.36841 59.1406 20.4162 75.1884 40.2122 75.1884Z" fill="url(#paint2_linear)" fill-opacity="0.2"/>
<g filter="url(#filter1_d)">
<path d="M65.0363 16.6094L36.1251 35.1369H36.0948V35.1669L36.0645 35.1972L18.022 64.9562L44.5413 43.6134L44.5717 43.5834V43.5531L65.0367 16.6097L65.0363 16.6094Z" fill="black" fill-opacity="0.05"/>
</g>
<path d="M64.4912 14.8837L35.9131 35.1972L44.3896 43.6131L64.4912 14.8837Z" fill="#CD151E"/>
<path d="M35.9434 35.1369L40.2121 39.3447L64.4912 14.8837L35.9434 35.1369Z" fill="#FA5153"/>
<path d="M35.9434 35.1369L44.4199 43.5525L15.8418 63.8662L35.9434 35.1365V35.1369Z" fill="#ACACAC"/>
<path d="M15.8418 63.8662L40.2118 39.3447L35.943 35.1365L15.8418 63.8662Z" fill="#EEEEEE"/>
</g>
<defs>
<filter id="filter0_d" x="-2.75" y="-1.375" width="85.5" height="85.5" filterUnits="userSpaceOnUse" color-interpolation-filters="sRGB">
<feFlood flood-opacity="0" result="BackgroundImageFix"/>
<feColorMatrix in="SourceAlpha" type="matrix" values="0 0 0 0 0 0 0 0 0 0 0 0 0 0 0 0 0 0 127 0"/>
<feOffset dy="2"/>
<feGaussianBlur stdDeviation="2"/>
<feColorMatrix type="matrix" values="0 0 0 0 0 0 0 0 0 0 0 0 0 0 0 0 0 0 0.266007 0"/>
<feBlend mode="normal" in2="BackgroundImageFix" result="effect1_dropShadow"/>
<feBlend mode="normal" in="SourceGraphic" in2="effect1_dropShadow" result="shape"/>
</filter>
<filter id="filter1_d" x="14.022" y="13.6094" width="55.0147" height="56.3469" filterUnits="userSpaceOnUse" color-interpolation-filters="sRGB">
<feFlood flood-opacity="0" result="BackgroundImageFix"/>
<feColorMatrix in="SourceAlpha" type="matrix" values="0 0 0 0 0 0 0 0 0 0 0 0 0 0 0 0 0 0 127 0"/>
<feOffset dy="1"/>
<feGaussianBlur stdDeviation="2"/>
<feColorMatrix type="matrix" values="0 0 0 0 0 0 0 0 0 0 0 0 0 0 0 0 0 0 1 0"/>
<feBlend mode="normal" in2="BackgroundImageFix" result="effect1_dropShadow"/>
<feBlend mode="normal" in="SourceGraphic" in2="effect1_dropShadow" result="shape"/>
</filter>
<linearGradient id="paint0_linear" x1="40" y1="78.125" x2="40" y2="0.625" gradientUnits="userSpaceOnUse">
<stop offset="0.25" stop-color="#DBDBDA"/>
<stop offset="1" stop-color="white"/>
</linearGradient>
<radialGradient id="paint1_radial" cx="0" cy="0" r="1" gradientUnits="userSpaceOnUse" gradientTransform="translate(45.036 31.5015) scale(43.7523)">
<stop stop-color="#2ABCE1"/>
<stop offset="0.11363" stop-color="#2ABBE1"/>
<stop offset="1" stop-color="#3375F8"/>
</radialGradient>
<linearGradient id="paint2_linear" x1="39.5311" y1="29.0955" x2="22.8014" y2="59.1103" gradientUnits="userSpaceOnUse">
<stop stop-opacity="0"/>
<stop offset="1"/>
</linearGradient>
<clipPath id="clip0">
<rect width="80" height="80" fill="white"/>
</clipPath>
</defs>
</svg>
