<svg width="24" height="24" viewBox="0 0 24 24" fill="none" xmlns="http://www.w3.org/2000/svg">
<path d="M6.33032 17.3836C6.33032 17.932 6.77798 18.3797 7.32876 18.3797H8.47017V21.2016C8.47017 21.9164 9.04438 22.5 9.74985 22.5C10.4577 22.5 11.0295 21.9187 11.0295 21.2016V18.3773H13.0217V21.1992C13.0217 21.9141 13.5959 22.4976 14.3014 22.4976C15.0092 22.4976 15.5811 21.9164 15.5811 21.1992V18.3773H16.7225C17.2733 18.3773 17.7209 17.9297 17.7209 17.3812V8.11876H6.33032V17.3836V17.3836ZM14.6999 3.31877L15.7522 1.79533C15.8131 1.70627 15.7991 1.58674 15.717 1.52814C15.635 1.47189 15.5178 1.50002 15.4569 1.58908L14.3647 3.17345C13.6452 2.88986 12.8436 2.73283 12.0022 2.73283C11.1608 2.73283 10.3592 2.88986 9.6397 3.17345L8.54751 1.59143C8.48657 1.50236 8.36938 1.47189 8.28735 1.53049C8.20532 1.58674 8.19126 1.70392 8.2522 1.79767L9.30454 3.32111C7.6311 4.09923 6.45923 5.57345 6.30923 7.2961H17.6999C17.5452 5.57111 16.3709 4.09689 14.6999 3.31877V3.31877ZM9.59751 5.72111C9.47281 5.72111 9.35092 5.68413 9.24724 5.61485C9.14356 5.54558 9.06275 5.44711 9.01503 5.33191C8.96731 5.21671 8.95483 5.08994 8.97916 4.96764C9.00348 4.84534 9.06353 4.733 9.1517 4.64483C9.23987 4.55666 9.35221 4.49661 9.47451 4.47229C9.59681 4.44796 9.72358 4.46044 9.83878 4.50816C9.95398 4.55588 10.0524 4.63669 10.1217 4.74037C10.191 4.84405 10.228 4.96594 10.228 5.09064C10.2275 5.25772 10.161 5.41783 10.0428 5.53597C9.9247 5.65411 9.76459 5.72067 9.59751 5.72111V5.72111ZM14.4819 5.72111C14.3572 5.72111 14.2353 5.68413 14.1316 5.61485C14.0279 5.54558 13.9471 5.44711 13.8994 5.33191C13.8517 5.21671 13.8392 5.08994 13.8635 4.96764C13.8879 4.84534 13.9479 4.733 14.0361 4.64483C14.1242 4.55666 14.2366 4.49661 14.3589 4.47229C14.4812 4.44796 14.608 4.46044 14.7232 4.50816C14.8384 4.55588 14.9368 4.63669 15.0061 4.74037C15.0754 4.84405 15.1124 4.96594 15.1124 5.09064C15.1119 5.25772 15.0454 5.41783 14.9272 5.53597C14.8091 5.65411 14.649 5.72067 14.4819 5.72111ZM19.7178 8.08126C19.01 8.08126 18.4381 8.66251 18.4381 9.3797V14.4516C18.4381 15.1664 19.0124 15.75 19.7178 15.75C20.4256 15.75 20.9975 15.1687 20.9975 14.4516V9.37735C20.9999 8.66017 20.428 8.08126 19.7178 8.08126ZM4.28188 8.08126C3.57407 8.08126 3.0022 8.66251 3.0022 9.3797V14.4516C3.0022 15.1664 3.57642 15.75 4.28188 15.75C4.9897 15.75 5.56157 15.1687 5.56157 14.4516V9.37735C5.56157 8.66017 4.98735 8.08126 4.28188 8.08126Z" fill="white"/>
</svg>
