<svg width="24" height="24" viewBox="0 0 24 24" fill="none" xmlns="http://www.w3.org/2000/svg">
<path d="M20.25 1.5H3.75C2.508 1.5 1.5 2.508 1.5 3.75V20.25C1.5 21.492 2.508 22.5 3.75 22.5H20.25C21.492 22.5 22.5 21.492 22.5 20.25V3.75C22.5 2.508 21.492 1.5 20.25 1.5ZM7.4535 18.0233C7.32918 18.2383 7.12453 18.3951 6.88458 18.4592C6.64463 18.5234 6.38902 18.4896 6.174 18.3652C5.95898 18.2409 5.80214 18.0363 5.73801 17.7963C5.67387 17.5564 5.70768 17.3008 5.832 17.0858L6.5025 15.9277C7.257 15.6982 7.87575 15.876 8.35875 16.4617L7.4535 18.0233ZM13.9642 15.4973H5.4375C4.9215 15.4973 4.5 15.075 4.5 14.5598C4.5 14.0445 4.92225 13.6223 5.4375 13.6223H7.8285L10.8937 8.316L9.933 6.657C9.80935 6.44182 9.77592 6.18644 9.84 5.94669C9.90409 5.70693 10.0605 5.50229 10.275 5.3775C10.4902 5.25385 10.7456 5.22042 10.9853 5.2845C11.2251 5.34859 11.4297 5.50498 11.5545 5.7195L11.9715 6.441L12.3885 5.7195C12.4501 5.61303 12.532 5.51973 12.6296 5.44492C12.7272 5.37011 12.8386 5.31526 12.9574 5.28351C13.0762 5.25175 13.2001 5.2437 13.3221 5.25983C13.444 5.27596 13.5615 5.31594 13.668 5.3775C13.7745 5.43906 13.8678 5.52098 13.9426 5.6186C14.0174 5.71621 14.0722 5.82761 14.104 5.94642C14.1358 6.06523 14.1438 6.18914 14.1277 6.31106C14.1115 6.43298 14.0716 6.55053 14.01 6.657L9.9885 13.623H12.8992C13.8457 13.623 14.376 14.7337 13.9635 15.498L13.9642 15.4973ZM18.5625 15.4973H17.2028L18.1215 17.0865C18.3795 17.5365 18.2242 18.1088 17.7795 18.366C17.3295 18.624 16.7572 18.4687 16.5 18.024C14.958 15.357 13.8045 13.3507 13.0312 12.0195C12.2482 10.6597 12.8063 9.30075 13.3643 8.84175C13.9785 9.906 14.8973 11.4997 16.125 13.623H18.5625C18.8111 13.623 19.0496 13.7218 19.2254 13.8976C19.4012 14.0734 19.5 14.3119 19.5 14.5605C19.5 14.8091 19.4012 15.0476 19.2254 15.2234C19.0496 15.3992 18.8111 15.498 18.5625 15.498V15.4973Z" fill="white"/>
</svg>
