<svg width="24" height="24" viewBox="0 0 24 24" fill="none" xmlns="http://www.w3.org/2000/svg">
<path d="M8.84249 18.9225C8.98489 18.9171 9.12273 18.8708 9.2395 18.7892C9.35626 18.7075 9.44699 18.5938 9.50081 18.4619C9.55464 18.3299 9.56927 18.1853 9.54296 18.0452C9.51666 17.9052 9.45052 17.7757 9.35249 17.6722C9.05474 17.3782 7.40474 16.1557 6.97499 15.6742C6.77474 15.4492 6.50474 15.3397 6.38999 15.0892C6.12599 14.5117 5.94149 13.6867 6.27749 13.0957C6.33749 12.9877 6.37649 13.0372 6.32999 13.2607C6.06749 14.5237 6.88949 15.5557 7.06949 15.0262C7.19474 14.661 7.07924 14.0077 7.14599 13.4887C7.26449 12.5685 8.10074 10.8052 8.46824 10.704C7.90274 9.65548 9.13349 8.83348 9.11849 7.91173C9.10799 7.31323 9.64349 8.64823 10.1835 8.93173C10.7835 9.24673 11.4457 8.33548 12.3847 7.87423C12.6502 7.74148 12.9922 7.59148 12.9667 7.48048C12.8572 6.94198 11.7337 8.14498 10.7317 8.18548C10.2742 8.20273 10.1047 8.09548 9.92924 7.92448C9.39449 7.40698 9.98324 7.83823 10.7767 7.69423C11.1307 7.63048 11.2492 7.57198 11.6242 7.42048C11.9992 7.27048 12.4252 7.04548 12.8505 6.92998C13.1467 6.85123 13.1205 6.62998 13.0065 6.56248C12.9412 6.52498 12.843 6.52798 12.7665 6.66223C12.5835 6.97723 11.7292 7.15723 11.4615 7.23973C11.1187 7.34473 10.74 7.44373 10.236 7.42273C9.47099 7.39123 9.64949 7.04023 9.10124 6.72673C8.94149 6.63448 8.98424 6.39298 9.19874 6.17923C9.30899 6.06823 9.61574 6.00523 9.76874 5.75023C9.78899 5.71498 9.98474 5.51023 10.1385 5.40523C10.191 5.36773 10.1955 4.43323 9.71699 4.41523C9.30974 4.39873 9.19424 4.71298 9.21074 5.02798C9.22574 5.34298 9.39374 5.60173 9.50474 5.60098C9.71849 5.59723 9.51974 5.83348 9.40124 5.87098C9.22349 5.92948 8.97974 5.17048 9.00749 4.80748C9.03599 4.42798 9.23399 3.75748 9.71249 3.77023C10.1452 3.78148 10.458 4.32223 10.443 5.25673C10.4407 5.41423 11.1442 5.18173 11.3782 5.42923C11.547 5.60548 10.8037 3.77323 12.4582 3.64723C12.8932 3.72973 13.3132 3.87598 13.4857 4.87723C13.4212 4.98223 13.5952 5.67973 13.3245 5.76448C12.996 5.86498 12.7942 5.74948 12.9847 5.43448C13.1137 5.12173 12.9877 4.32298 12.3232 4.36948C11.658 4.41823 11.7457 5.59798 11.9287 5.62198C12.111 5.64448 12.5692 5.96998 12.8902 6.03298C13.9402 6.23548 13.1677 6.83923 13.3065 7.56898C13.461 8.39398 14.004 8.17648 14.4915 10.3567C14.5935 10.4895 14.9977 10.6155 15.39 12.2917C15.7447 13.7992 15.2437 14.8957 16.0935 14.8057C16.2855 14.7862 16.566 14.7307 16.6875 14.3047C17.0062 13.1872 16.5277 11.8575 16.0462 10.9597C15.765 10.4362 15.4987 10.0792 15.3592 9.95698C15.9127 10.284 16.6215 11.3295 16.7827 12.1035C16.9972 13.122 17.1502 13.554 16.8277 14.631C17.0152 14.7247 17.4802 14.9235 17.4802 15.1447C16.995 14.7472 15.5077 14.676 15.4702 15.6292C15.2167 15.6352 15.0247 15.6547 14.8627 15.849C14.2642 16.557 14.8177 17.9805 14.7577 18.744C14.7052 19.4152 14.5192 20.0805 14.4127 20.7555C14.0572 20.7405 14.0917 20.4825 14.2072 20.1165C14.3092 19.794 14.4712 19.3905 14.4817 19.0035C14.4907 18.6532 14.4517 18.4335 14.3647 18.381C14.2762 18.3262 14.1375 18.4357 13.9447 18.744C13.5382 19.4002 12.6547 19.689 11.8297 19.7917C11.0047 19.8952 10.2375 19.8127 9.83174 19.3582C9.69224 19.203 9.46274 19.4017 9.43424 19.4407C9.39824 19.497 9.56924 19.6057 9.69899 19.8412C9.88649 20.1862 10.0665 20.7097 9.61949 20.9497C9.62399 19.7317 9.23849 19.662 8.84474 18.9172L8.84249 18.9225ZM8.54849 18.891C8.84474 19.356 9.88574 21.315 8.05949 21.5685C7.44899 21.6547 6.46574 21.2137 5.51249 20.9812C4.65599 20.7712 3.78749 20.6482 3.29999 20.511C3.00749 20.43 2.88524 20.3235 2.85974 20.2005C2.79224 19.875 3.21524 19.4205 3.23699 19.0342C3.25799 18.648 3.09599 18.4492 2.96399 18.1342C2.83124 17.8192 2.79599 17.5837 2.90399 17.4487C2.98499 17.3437 3.15374 17.2987 3.42674 17.3257C3.77174 17.361 4.19174 17.2882 4.41524 17.1532C4.79399 16.9207 4.97174 16.4482 4.80224 15.8782C4.80224 16.437 4.61924 16.6477 4.16099 16.9035C3.72749 17.142 3.05999 16.9485 2.75399 17.2147C2.38499 17.535 2.88524 18.3607 2.84399 18.9682C2.81249 19.4347 2.32649 19.9597 2.54399 20.4277C2.76149 20.8972 3.77924 20.9482 4.84124 21.1702C6.35024 21.4852 7.22924 22.0342 7.92599 22.0605C8.94299 22.098 9.09899 21.054 10.6957 21.0405C11.1541 21.0163 11.613 21.0013 12.072 20.9955C12.588 20.988 13.1032 20.9932 13.632 21.006C14.694 21.0322 14.3295 21.5865 15.0195 21.9412C15.6 22.239 16.647 22.1212 16.8975 21.8835C17.235 21.561 18.144 20.7832 18.8415 20.4322C19.7085 19.995 21.7485 19.2412 20.268 18.3232C19.923 18.1095 19.1077 17.8822 19.038 16.3162C18.7305 16.5907 18.765 18.0502 19.6267 18.339C20.5897 18.6615 21.1912 19.203 19.4017 19.8165C18.2167 20.2215 18.0142 20.3452 17.0767 21.126C16.1272 21.9165 14.7187 21.603 14.9662 19.9395C15.0937 19.0732 15.1687 18.357 14.9512 17.604C14.8462 17.2365 14.7937 16.764 14.8665 16.4325C15.0067 15.789 15.354 15.5947 15.696 16.2127C15.909 16.6012 15.984 17.0527 16.7512 17.0902C17.9565 17.148 18.1957 15.9255 18.5812 15.87C18.8377 15.8325 19.095 15.105 18.8992 13.9275C18.6892 12.6675 17.9482 10.68 16.998 9.67048C16.209 8.83498 15.711 8.09998 15.3975 7.04998C15.1335 6.16873 14.9872 5.31148 15.0412 4.49098C15.1117 3.42823 14.5237 1.94848 13.584 1.25398C12.9975 0.818981 12.0765 0.584231 11.2425 0.593981C10.7752 0.599231 10.335 0.668981 9.99749 0.851231C8.60549 1.60723 8.41199 2.68498 8.43224 3.91723C8.45099 5.07448 8.49074 6.39448 8.62274 7.64998C8.46674 8.22748 7.65674 9.32023 7.13774 9.98548C6.44249 10.6755 6.09074 12.0075 5.63999 13.1707C5.39999 13.7932 4.99349 14.0707 4.95899 14.8702C4.94999 15.0922 4.95749 15.669 5.17049 15.5047C5.98499 14.8725 7.00799 16.4632 8.54849 18.8917V18.891ZM12.783 2.21473C12.738 2.34673 12.558 2.45473 12.6735 2.54698C12.7875 2.63923 12.8535 2.41948 13.086 2.33698C13.146 2.31448 13.422 2.34448 13.4745 2.21323C13.497 2.15623 13.332 2.09098 13.2345 1.99573C13.134 1.90198 13.0372 1.81873 12.9442 1.82323C12.7027 1.83823 12.8212 2.09923 12.7822 2.21548L12.783 2.21473ZM14.2005 7.01248C14.2867 6.92248 14.331 7.16773 14.5627 7.31398C14.7457 7.42948 14.9227 7.34398 14.9715 7.57948C15.0045 7.74823 14.8987 7.92973 14.7585 7.90648C14.5125 7.86448 13.947 7.27873 14.2005 7.01248ZM10.374 5.53123C9.99299 5.50348 9.96674 5.77873 10.0927 5.77423C10.2217 5.76898 10.1422 5.55523 10.374 5.53048V5.53123ZM9.71999 4.82623C9.76499 4.81723 9.82949 4.89373 9.80999 5.00173C9.78149 5.15023 9.79349 5.24398 9.89699 5.24473C9.91349 5.24473 9.93299 5.24098 9.93899 5.20198C9.98849 4.90498 9.83399 4.68598 9.77024 4.66948C9.62549 4.63198 9.64274 4.84198 9.71999 4.82698V4.82623ZM12.4972 4.70098C12.5947 4.73098 12.687 4.89748 12.7072 5.07898C12.7087 5.09398 12.8332 5.05273 12.8347 5.01298C12.8422 4.72048 12.5947 4.58548 12.5287 4.59148C12.3787 4.60423 12.4215 4.67848 12.4972 4.70098ZM11.0737 5.56723C11.421 5.40673 11.5425 5.65573 11.4225 5.69473C11.2995 5.73598 11.2987 5.50873 11.0737 5.56723ZM6.88349 11.4772C6.71849 11.4585 6.93074 11.3347 7.02149 11.1802C7.11899 11.01 7.10024 10.7977 7.20449 10.8277C7.30874 10.8577 7.24949 10.9777 7.17974 11.1742C7.11824 11.3392 6.94349 11.484 6.88349 11.4772Z" fill="white"/>
</svg>
